<svg width="543" height="584" viewBox="0 0 543 584" fill="none" xmlns="http://www.w3.org/2000/svg">
<path d="M18.944 124.464L18.054 126.8L18.0662 126.805L18.944 124.464ZM4.48 115.504L2.55789 113.905L1.03728 115.734L2.78736 117.344L4.48 115.504ZM15.232 102.576L16.859 100.678L14.9324 99.0265L13.3099 100.977L15.232 102.576ZM25.216 108.848L24.2056 111.135L24.2056 111.135L25.216 108.848ZM44.544 109.104L43.058 107.094L43.0365 107.109L43.0154 107.126L44.544 109.104ZM44.16 97.456L42.8738 99.5997L42.9236 99.6296L42.9748 99.6572L44.16 97.456ZM35.456 93.232L34.481 95.5341L34.4907 95.5381L35.456 93.232ZM24.576 88.624L23.5996 90.9255L23.601 90.926L24.576 88.624ZM16.512 83.888L14.9503 85.8402L14.9704 85.8563L14.9909 85.872L16.512 83.888ZM11.52 53.296L9.45443 51.8877L9.44339 51.9038L9.43261 51.9202L11.52 53.296ZM22.016 44.336L20.9149 42.0915L20.9064 42.0957L20.898 42.0999L22.016 44.336ZM51.84 43.824L52.7541 41.4971L52.7541 41.4971L51.84 43.824ZM64.384 52.016L66.33 53.5854L67.7403 51.8367L66.1518 50.2482L64.384 52.016ZM54.784 63.92L53.2449 65.8901L55.1847 67.4056L56.73 65.4894L54.784 63.92ZM46.592 59.056L45.59 61.3464L45.6203 61.3597L45.6511 61.3722L46.592 59.056ZM29.696 59.312L31.1043 61.3776L31.114 61.371L31.1237 61.3643L29.696 59.312ZM30.464 70.576L29.2834 72.7797L29.2994 72.7882L29.3154 72.7965L30.464 70.576ZM39.552 74.672L40.49 72.3546L40.49 72.3546L39.552 74.672ZM50.304 79.024L51.246 76.7083L51.242 76.7066L50.304 79.024ZM62.336 87.472L64.2566 85.8715L64.2566 85.8715L62.336 87.472ZM63.104 114.48L65.2188 115.813L65.2188 115.813L63.104 114.48ZM52.352 123.952L53.4862 126.18L53.4862 126.18L52.352 123.952ZM35.328 125.036C30.1863 125.036 25.0217 124.073 19.8218 122.123L18.0662 126.805C23.789 128.951 29.547 130.036 35.328 130.036V125.036ZM19.834 122.128C14.757 120.194 10.2076 117.376 6.17264 113.664L2.78736 117.344C7.28577 121.482 12.379 124.638 18.054 126.8L19.834 122.128ZM6.40211 117.103L17.1541 104.175L13.3099 100.977L2.55789 113.905L6.40211 117.103ZM13.605 104.474C16.7808 107.196 20.3173 109.417 24.2056 111.135L26.2264 106.561C22.776 105.037 19.6565 103.076 16.859 100.678L13.605 104.474ZM24.2056 111.135C28.1381 112.872 32.0231 113.78 35.84 113.78V108.78C32.8302 108.78 29.6326 108.066 26.2264 106.561L24.2056 111.135ZM35.84 113.78C39.9868 113.78 43.5525 113.03 46.0726 111.082L43.0154 107.126C41.7808 108.08 39.5438 108.78 35.84 108.78V113.78ZM46.03 111.114C48.6409 109.185 49.988 106.471 49.988 103.216H44.988C44.988 104.911 44.3725 106.122 43.058 107.094L46.03 111.114ZM49.988 103.216C49.988 101.539 49.6339 99.9489 48.8207 98.5413C48.0036 97.1272 46.8059 96.0413 45.3453 95.2548L42.9748 99.6572C43.7328 100.065 44.1991 100.537 44.4913 101.043C44.7874 101.555 44.988 102.247 44.988 103.216H49.988ZM45.4462 95.3123C43.1679 93.9452 40.1443 92.4843 36.4213 90.9259L34.4907 95.5381C38.1064 97.0517 40.8855 98.4068 42.8738 99.5997L45.4462 95.3123ZM36.431 90.93L25.551 86.322L23.601 90.926L34.481 95.534L36.431 90.93ZM25.5524 86.3225C22.9409 85.2146 20.4348 83.7453 18.0331 81.904L14.9909 85.872C17.7092 87.9561 20.5791 89.644 23.5996 90.9255L25.5524 86.3225ZM18.0737 81.9358C15.7836 80.1037 13.9054 77.8479 12.4371 75.1433L8.04287 77.5287C9.8173 80.7974 12.1204 83.5763 14.9503 85.8402L18.0737 81.9358ZM12.4371 75.1433C11.0476 72.5835 10.308 69.5092 10.308 65.84H5.308C5.308 70.1921 6.18977 74.1151 8.04287 77.5287L12.4371 75.1433ZM10.308 65.84C10.308 61.7083 11.4088 58.0075 13.6074 54.6718L9.43261 51.9202C6.68182 56.0938 5.308 60.7557 5.308 65.84H10.308ZM13.5856 54.7043C15.8838 51.3336 19.0421 48.6181 23.134 46.5721L20.898 42.0999C16.1153 44.4913 12.2762 47.7491 9.45443 51.8877L13.5856 54.7043ZM23.1171 46.5805C27.2485 44.5537 32.025 43.508 37.504 43.508V38.508C31.3776 38.508 25.8288 39.6809 20.9149 42.0915L23.1171 46.5805ZM37.504 43.508C41.9472 43.508 46.4166 44.3794 50.9259 46.1509L52.7541 41.4971C47.7061 39.514 42.6182 38.508 37.504 38.508V43.508ZM50.9259 46.1509C55.3888 47.9042 59.2785 50.4461 62.6162 53.7838L66.1518 50.2482C62.3215 46.4179 57.8485 43.4985 52.7541 41.4971L50.9259 46.1509ZM62.438 50.4466L52.838 62.3506L56.73 65.4894L66.33 53.5854L62.438 50.4466ZM56.3231 61.9499C53.4411 59.6984 50.5118 57.95 47.5329 56.7398L45.6511 61.3722C48.1336 62.3807 50.6655 63.8749 53.2449 65.8901L56.3231 61.9499ZM47.594 56.7656C44.5125 55.4174 41.1366 54.764 37.504 54.764V59.764C40.5274 59.764 43.2102 60.3053 45.59 61.3464L47.594 56.7656ZM37.504 54.764C33.9289 54.764 30.7756 55.5156 28.2683 57.2597L31.1237 61.3643C32.5417 60.3778 34.5938 59.764 37.504 59.764V54.764ZM28.2877 57.2464C25.6865 59.02 24.38 61.6507 24.38 64.816H29.38C29.38 63.2026 29.9509 62.164 31.1043 61.3776L28.2877 57.2464ZM24.38 64.816C24.38 66.4996 24.778 68.0899 25.6534 69.4968C26.524 70.896 27.7796 71.9741 29.2834 72.7797L31.6446 68.3723C30.7591 67.8979 30.2227 67.376 29.8986 66.8552C29.5794 66.3421 29.38 65.6924 29.38 64.816H24.38ZM29.3154 72.7965C31.8793 74.1227 34.9836 75.5199 38.614 76.9894L40.49 72.3546C36.9524 70.9228 33.998 69.5893 31.6126 68.3555L29.3154 72.7965ZM38.614 76.9894L49.366 81.3414L51.242 76.7066L40.49 72.3546L38.614 76.9894ZM49.362 81.3397C54.0797 83.2588 57.7316 85.8519 60.4154 89.0725L64.2566 85.8715C60.967 81.9241 56.5977 78.8852 51.246 76.7083L49.362 81.3397ZM60.4154 89.0725C62.9381 92.0996 64.316 96.2197 64.316 101.68H69.316C69.316 95.3643 67.7072 90.0124 64.2566 85.8715L60.4154 89.0725ZM64.316 101.68C64.316 105.813 63.2141 109.618 60.9892 113.147L65.2188 115.813C67.9433 111.492 69.316 106.763 69.316 101.68H64.316ZM60.9892 113.147C58.7859 116.642 55.5649 119.511 51.2178 121.724L53.4862 126.18C58.5257 123.614 62.4728 120.169 65.2188 115.813L60.9892 113.147ZM51.2178 121.724C46.9562 123.894 41.6911 125.036 35.328 125.036V130.036C42.2769 130.036 48.3611 128.789 53.4862 126.18L51.2178 121.724ZM111.377 126H108.877V128.5H111.377V126ZM111.377 58.416H113.877V55.916H111.377V58.416ZM88.465 58.416H85.965V60.916H88.465V58.416ZM88.465 42.544V40.044H85.965V42.544H88.465ZM153.233 42.544H155.733V40.044H153.233V42.544ZM153.233 58.416V60.916H155.733V58.416H153.233ZM130.321 58.416V55.916H127.821V58.416H130.321ZM130.321 126V128.5H132.821V126H130.321ZM113.877 126V58.416H108.877V126H113.877ZM111.377 55.916H88.465V60.916H111.377V55.916ZM90.965 58.416V42.544H85.965V58.416H90.965ZM88.465 45.044H153.233V40.044H88.465V45.044ZM150.733 42.544V58.416H155.733V42.544H150.733ZM153.233 55.916H130.321V60.916H153.233V55.916ZM127.821 58.416V126H132.821V58.416H127.821ZM130.321 123.5H111.377V128.5H130.321V123.5ZM193.341 122.288L192.022 124.412L192.029 124.416L192.036 124.42L193.341 122.288ZM180.029 107.312L177.776 108.395L177.784 108.412L177.793 108.43L180.029 107.312ZM180.029 60.72L177.799 59.5901L177.793 59.602L180.029 60.72ZM193.341 46.128L194.613 48.2803L194.623 48.2746L193.341 46.128ZM232.893 46.128L231.597 48.266L231.616 48.2775L231.635 48.2886L232.893 46.128ZM246.205 60.72L243.963 61.8261L243.969 61.838L243.975 61.8499L246.205 60.72ZM246.205 107.312L243.963 106.206L243.957 106.218L246.205 107.312ZM232.893 122.288L231.588 120.156L231.581 120.16L231.574 120.164L232.893 122.288ZM226.749 103.856L224.674 102.461L224.674 102.461L226.749 103.856ZM226.749 64.304L228.788 62.8579L228.788 62.8579L226.749 64.304ZM199.613 64.304L197.574 62.8579L197.574 62.8579L199.613 64.304ZM199.613 103.856L201.688 102.461L201.688 102.461L199.613 103.856ZM213.181 125.036C206.075 125.036 199.925 123.386 194.646 120.156L192.036 124.42C198.192 128.188 205.268 130.036 213.181 130.036V125.036ZM194.66 120.164C189.457 116.932 185.321 112.306 182.265 106.194L177.793 108.43C181.222 115.289 185.961 120.646 192.022 124.412L194.66 120.164ZM182.282 106.229C179.322 100.068 177.793 92.6466 177.793 83.888H172.793C172.793 93.22 174.422 101.415 177.776 108.395L182.282 106.229ZM177.793 83.888C177.793 75.0355 179.325 67.719 182.265 61.838L177.793 59.602C174.419 66.3503 172.793 74.4792 172.793 83.888H177.793ZM182.259 61.8499C185.308 55.8324 189.431 51.3426 194.613 48.2803L192.069 43.9757C185.987 47.5694 181.235 52.8076 177.799 59.5901L182.259 61.8499ZM194.623 48.2746C199.905 45.121 206.064 43.508 213.181 43.508V38.508C205.279 38.508 198.212 40.3083 192.059 43.9814L194.623 48.2746ZM213.181 43.508C220.299 43.508 226.408 45.1212 231.597 48.266L234.189 43.99C228.114 40.3081 221.082 38.508 213.181 38.508V43.508ZM231.635 48.2886C236.894 51.3498 241.005 55.8303 243.963 61.8261L248.447 59.6139C245.09 52.8096 240.326 47.5622 234.151 43.9674L231.635 48.2886ZM243.975 61.8499C247 67.8203 248.569 75.1354 248.569 83.888H253.569C253.569 74.5499 251.895 66.4196 248.435 59.5901L243.975 61.8499ZM248.569 83.888C248.569 92.6378 247.001 100.05 243.963 106.206L248.447 108.418C251.894 101.432 253.569 93.2289 253.569 83.888H248.569ZM243.957 106.218C240.992 112.308 236.867 116.925 231.588 120.156L234.198 124.42C240.353 120.654 245.103 115.286 248.453 108.406L243.957 106.218ZM231.574 120.164C226.388 123.386 220.287 125.036 213.181 125.036V130.036C221.093 130.036 228.134 128.188 234.212 124.412L231.574 120.164ZM213.181 113.78C219.773 113.78 225.055 110.855 228.824 105.251L224.674 102.461C221.787 106.755 218.024 108.78 213.181 108.78V113.78ZM228.824 105.251C232.52 99.7542 234.241 92.5551 234.241 83.888H229.241C229.241 91.9463 227.634 98.0592 224.674 102.461L228.824 105.251ZM234.241 83.888C234.241 75.2318 232.524 68.1262 228.788 62.8579L224.71 65.7501C227.63 69.8685 229.241 75.8188 229.241 83.888H234.241ZM228.788 62.8579C224.995 57.5085 219.715 54.764 213.181 54.764V59.764C218.082 59.764 221.847 61.7128 224.71 65.7501L228.788 62.8579ZM213.181 54.764C206.647 54.764 201.367 57.5085 197.574 62.8579L201.652 65.7501C204.515 61.7128 208.28 59.764 213.181 59.764V54.764ZM197.574 62.8579C193.838 68.1262 192.121 75.2318 192.121 83.888H197.121C197.121 75.8188 198.732 69.8685 201.652 65.7501L197.574 62.8579ZM192.121 83.888C192.121 92.5551 193.842 99.7542 197.538 105.251L201.688 102.461C198.728 98.0592 197.121 91.9463 197.121 83.888H192.121ZM197.538 105.251C201.307 110.855 206.589 113.78 213.181 113.78V108.78C208.338 108.78 204.575 106.755 201.688 102.461L197.538 105.251ZM283.401 126H280.901V128.5H283.401V126ZM283.401 42.544V40.044H280.901V42.544H283.401ZM302.729 42.544L304.943 41.3824L304.24 40.044H302.729V42.544ZM324.489 84.016L326.774 83.0007L326.741 82.9264L326.703 82.8544L324.489 84.016ZM332.681 102.448L330.396 103.463L331.056 104.948H332.681V102.448ZM333.193 102.448V104.948H335.893L335.686 102.256L333.193 102.448ZM331.785 87.6L329.3 87.8718L329.3 87.8718L331.785 87.6ZM330.889 42.544V40.044H328.389V42.544H330.889ZM348.809 42.544H351.309V40.044H348.809V42.544ZM348.809 126V128.5H351.309V126H348.809ZM329.481 126L327.266 127.159L327.967 128.5H329.481V126ZM307.721 84.4L305.442 85.4272L305.472 85.4939L305.506 85.5587L307.721 84.4ZM299.529 66.224L301.808 65.1968L301.144 63.724H299.529V66.224ZM299.017 66.224V63.724H296.275L296.528 66.4545L299.017 66.224ZM300.425 81.072L297.937 81.3128L297.939 81.3327L297.941 81.3525L300.425 81.072ZM301.321 126V128.5H303.821V126H301.321ZM285.901 126V42.544H280.901V126H285.901ZM283.401 45.044H302.729V40.044H283.401V45.044ZM300.515 43.7055L322.275 85.1775L326.703 82.8544L304.943 41.3824L300.515 43.7055ZM322.204 85.0313L330.396 103.463L334.966 101.433L326.774 83.0007L322.204 85.0313ZM332.681 104.948H333.193V99.948H332.681V104.948ZM335.686 102.256C335.342 97.7869 334.87 92.8103 334.27 87.3282L329.3 87.8718C329.895 93.3124 330.361 98.2345 330.7 102.64L335.686 102.256ZM334.27 87.3282C333.682 81.9474 333.389 76.8333 333.389 71.984H328.389C328.389 77.0334 328.694 82.3299 329.3 87.8718L334.27 87.3282ZM333.389 71.984V42.544H328.389V71.984H333.389ZM330.889 45.044H348.809V40.044H330.889V45.044ZM346.309 42.544V126H351.309V42.544H346.309ZM348.809 123.5H329.481V128.5H348.809V123.5ZM331.696 124.841L309.936 83.2413L305.506 85.5587L327.266 127.159L331.696 124.841ZM310 83.3728L301.808 65.1968L297.25 67.2512L305.442 85.4272L310 83.3728ZM299.529 63.724H299.017V68.724H299.529V63.724ZM296.528 66.4545C296.955 71.0664 297.424 76.0192 297.937 81.3128L302.913 80.8312C302.402 75.5435 301.933 70.5976 301.506 65.9935L296.528 66.4545ZM297.941 81.3525C298.528 86.557 298.821 91.5831 298.821 96.432H303.821C303.821 91.3822 303.516 86.1684 302.909 80.7915L297.941 81.3525ZM298.821 96.432V126H303.821V96.432H298.821ZM301.321 123.5H283.401V128.5H301.321V123.5ZM385.166 126H382.666V128.5H385.166V126ZM385.166 42.544V40.044H382.666V42.544H385.166ZM403.982 42.544H406.482V40.044H403.982V42.544ZM403.982 76.72H401.482V79.22H403.982V76.72ZM404.494 76.72V79.22H405.768L406.516 78.1895L404.494 76.72ZM429.326 42.544V40.044H428.052L427.304 41.0745L429.326 42.544ZM450.062 42.544L452.055 44.0538L455.093 40.044H450.062V42.544ZM424.846 75.824L422.853 74.3142L421.837 75.6552L422.697 77.1014L424.846 75.824ZM454.67 126V128.5H459.064L456.819 124.723L454.67 126ZM434.062 126L431.898 127.251L432.62 128.5H434.062V126ZM413.71 90.8L415.874 89.5486L413.993 86.2955L411.72 89.2873L413.71 90.8ZM403.982 103.6L401.992 102.087L401.482 102.758V103.6H403.982ZM403.982 126V128.5H406.482V126H403.982ZM387.666 126V42.544H382.666V126H387.666ZM385.166 45.044H403.982V40.044H385.166V45.044ZM401.482 42.544V76.72H406.482V42.544H401.482ZM403.982 79.22H404.494V74.22H403.982V79.22ZM406.516 78.1895L431.348 44.0135L427.304 41.0745L402.472 75.2505L406.516 78.1895ZM429.326 45.044H450.062V40.044H429.326V45.044ZM448.069 41.0342L422.853 74.3142L426.839 77.3338L452.055 44.0538L448.069 41.0342ZM422.697 77.1014L452.521 127.277L456.819 124.723L426.995 74.5466L422.697 77.1014ZM454.67 123.5H434.062V128.5H454.67V123.5ZM436.226 124.749L415.874 89.5486L411.546 92.0513L431.898 127.251L436.226 124.749ZM411.72 89.2873L401.992 102.087L405.972 105.113L415.7 92.3127L411.72 89.2873ZM401.482 103.6V126H406.482V103.6H401.482ZM403.982 123.5H385.166V128.5H403.982V123.5ZM487.019 124.464L486.129 126.8L486.141 126.805L487.019 124.464ZM472.555 115.504L470.633 113.905L469.112 115.734L470.862 117.344L472.555 115.504ZM483.307 102.576L484.934 100.678L483.007 99.0265L481.385 100.977L483.307 102.576ZM493.291 108.848L492.281 111.135L492.281 111.135L493.291 108.848ZM512.619 109.104L511.133 107.094L511.112 107.109L511.09 107.126L512.619 109.104ZM512.235 97.456L510.949 99.5997L510.999 99.6296L511.05 99.6572L512.235 97.456ZM503.531 93.232L502.556 95.5341L502.566 95.5381L503.531 93.232ZM492.651 88.624L491.675 90.9255L491.676 90.926L492.651 88.624ZM484.587 83.888L483.025 85.8402L483.045 85.8563L483.066 85.872L484.587 83.888ZM479.595 53.296L477.529 51.8877L477.518 51.9038L477.508 51.9202L479.595 53.296ZM490.091 44.336L488.99 42.0915L488.981 42.0957L488.973 42.0999L490.091 44.336ZM519.915 43.824L520.829 41.4971L520.829 41.4971L519.915 43.824ZM532.459 52.016L534.405 53.5854L535.815 51.8367L534.227 50.2482L532.459 52.016ZM522.859 63.92L521.32 65.8901L523.26 67.4056L524.805 65.4894L522.859 63.92ZM514.667 59.056L513.665 61.3464L513.695 61.3597L513.726 61.3722L514.667 59.056ZM497.771 59.312L499.179 61.3776L499.189 61.371L499.199 61.3643L497.771 59.312ZM498.539 70.576L497.358 72.7797L497.374 72.7882L497.39 72.7965L498.539 70.576ZM507.627 74.672L508.565 72.3546L508.565 72.3546L507.627 74.672ZM518.379 79.024L519.321 76.7083L519.317 76.7066L518.379 79.024ZM530.411 87.472L532.332 85.8715L532.332 85.8715L530.411 87.472ZM531.179 114.48L533.294 115.813L533.294 115.813L531.179 114.48ZM520.427 123.952L521.561 126.18L521.561 126.18L520.427 123.952ZM503.403 125.036C498.261 125.036 493.097 124.073 487.897 122.123L486.141 126.805C491.864 128.951 497.622 130.036 503.403 130.036V125.036ZM487.909 122.128C482.832 120.194 478.283 117.376 474.248 113.664L470.862 117.344C475.361 121.482 480.454 124.638 486.129 126.8L487.909 122.128ZM474.477 117.103L485.229 104.175L481.385 100.977L470.633 113.905L474.477 117.103ZM481.68 104.474C484.856 107.196 488.392 109.417 492.281 111.135L494.301 106.561C490.851 105.037 487.732 103.076 484.934 100.678L481.68 104.474ZM492.281 111.135C496.213 112.872 500.098 113.78 503.915 113.78V108.78C500.905 108.78 497.708 108.066 494.301 106.561L492.281 111.135ZM503.915 113.78C508.062 113.78 511.628 113.03 514.148 111.082L511.09 107.126C509.856 108.08 507.619 108.78 503.915 108.78V113.78ZM514.105 111.114C516.716 109.185 518.063 106.471 518.063 103.216H513.063C513.063 104.911 512.447 106.122 511.133 107.094L514.105 111.114ZM518.063 103.216C518.063 101.539 517.709 99.9489 516.896 98.5413C516.079 97.1272 514.881 96.0413 513.42 95.2548L511.05 99.6572C511.808 100.065 512.274 100.537 512.566 101.043C512.862 101.555 513.063 102.247 513.063 103.216H518.063ZM513.521 95.3123C511.243 93.9452 508.219 92.4843 504.496 90.9259L502.566 95.5381C506.181 97.0517 508.961 98.4068 510.949 99.5997L513.521 95.3123ZM504.506 90.93L493.626 86.322L491.676 90.926L502.556 95.534L504.506 90.93ZM493.627 86.3225C491.016 85.2146 488.51 83.7453 486.108 81.904L483.066 85.872C485.784 87.9561 488.654 89.644 491.675 90.9255L493.627 86.3225ZM486.149 81.9358C483.859 80.1037 481.98 77.8479 480.512 75.1433L476.118 77.5287C477.892 80.7974 480.195 83.5763 483.025 85.8402L486.149 81.9358ZM480.512 75.1433C479.123 72.5835 478.383 69.5092 478.383 65.84H473.383C473.383 70.1921 474.265 74.1151 476.118 77.5287L480.512 75.1433ZM478.383 65.84C478.383 61.7083 479.484 58.0075 481.682 54.6718L477.508 51.9202C474.757 56.0938 473.383 60.7557 473.383 65.84H478.383ZM481.661 54.7043C483.959 51.3336 487.117 48.6181 491.209 46.5721L488.973 42.0999C484.19 44.4913 480.351 47.7491 477.529 51.8877L481.661 54.7043ZM491.192 46.5805C495.324 44.5537 500.1 43.508 505.579 43.508V38.508C499.453 38.508 493.904 39.6809 488.99 42.0915L491.192 46.5805ZM505.579 43.508C510.022 43.508 514.492 44.3794 519.001 46.1509L520.829 41.4971C515.781 39.514 510.693 38.508 505.579 38.508V43.508ZM519.001 46.1509C523.464 47.9042 527.354 50.4461 530.691 53.7838L534.227 50.2482C530.396 46.4179 525.924 43.4985 520.829 41.4971L519.001 46.1509ZM530.513 50.4466L520.913 62.3506L524.805 65.4894L534.405 53.5854L530.513 50.4466ZM524.398 61.9499C521.516 59.6984 518.587 57.95 515.608 56.7398L513.726 61.3722C516.209 62.3807 518.741 63.8749 521.32 65.8901L524.398 61.9499ZM515.669 56.7656C512.587 55.4174 509.212 54.764 505.579 54.764V59.764C508.602 59.764 511.285 60.3053 513.665 61.3464L515.669 56.7656ZM505.579 54.764C502.004 54.764 498.851 55.5156 496.343 57.2597L499.199 61.3643C500.617 60.3778 502.669 59.764 505.579 59.764V54.764ZM496.363 57.2464C493.761 59.02 492.455 61.6507 492.455 64.816H497.455C497.455 63.2026 498.026 62.164 499.179 61.3776L496.363 57.2464ZM492.455 64.816C492.455 66.4996 492.853 68.0899 493.728 69.4968C494.599 70.896 495.855 71.9741 497.358 72.7797L499.72 68.3723C498.834 67.8979 498.298 67.376 497.974 66.8552C497.654 66.3421 497.455 65.6924 497.455 64.816H492.455ZM497.39 72.7965C499.954 74.1227 503.059 75.5199 506.689 76.9894L508.565 72.3546C505.027 70.9228 502.073 69.5893 499.688 68.3555L497.39 72.7965ZM506.689 76.9894L517.441 81.3414L519.317 76.7066L508.565 72.3546L506.689 76.9894ZM517.437 81.3397C522.155 83.2588 525.807 85.8519 528.49 89.0725L532.332 85.8715C529.042 81.9241 524.673 78.8852 519.321 76.7083L517.437 81.3397ZM528.49 89.0725C531.013 92.0996 532.391 96.2197 532.391 101.68H537.391C537.391 95.3643 535.782 90.0124 532.332 85.8715L528.49 89.0725ZM532.391 101.68C532.391 105.813 531.289 109.618 529.064 113.147L533.294 115.813C536.018 111.492 537.391 106.763 537.391 101.68H532.391ZM529.064 113.147C526.861 116.642 523.64 119.511 519.293 121.724L521.561 126.18C526.601 123.614 530.548 120.169 533.294 115.813L529.064 113.147ZM519.293 121.724C515.031 123.894 509.766 125.036 503.403 125.036V130.036C510.352 130.036 516.436 128.789 521.561 126.18L519.293 121.724Z" fill="#CCEECC"/>
<path d="M18.944 265.464L18.054 267.8L18.0662 267.805L18.944 265.464ZM4.48 256.504L2.55789 254.905L1.03728 256.734L2.78736 258.344L4.48 256.504ZM15.232 243.576L16.859 241.678L14.9324 240.027L13.3099 241.977L15.232 243.576ZM25.216 249.848L24.2056 252.135L24.2056 252.135L25.216 249.848ZM44.544 250.104L43.058 248.094L43.0365 248.109L43.0154 248.126L44.544 250.104ZM44.16 238.456L42.8738 240.6L42.9236 240.63L42.9748 240.657L44.16 238.456ZM35.456 234.232L34.481 236.534L34.4907 236.538L35.456 234.232ZM24.576 229.624L23.5996 231.925L23.601 231.926L24.576 229.624ZM16.512 224.888L14.9503 226.84L14.9704 226.856L14.9909 226.872L16.512 224.888ZM11.52 194.296L9.45443 192.888L9.44339 192.904L9.43261 192.92L11.52 194.296ZM22.016 185.336L20.9149 183.092L20.9064 183.096L20.898 183.1L22.016 185.336ZM51.84 184.824L52.7541 182.497L52.7541 182.497L51.84 184.824ZM64.384 193.016L66.33 194.585L67.7403 192.837L66.1518 191.248L64.384 193.016ZM54.784 204.92L53.2449 206.89L55.1847 208.406L56.73 206.489L54.784 204.92ZM46.592 200.056L45.59 202.346L45.6203 202.36L45.6511 202.372L46.592 200.056ZM29.696 200.312L31.1043 202.378L31.114 202.371L31.1237 202.364L29.696 200.312ZM30.464 211.576L29.2834 213.78L29.2994 213.788L29.3154 213.797L30.464 211.576ZM39.552 215.672L40.49 213.355L40.49 213.355L39.552 215.672ZM50.304 220.024L51.246 217.708L51.242 217.707L50.304 220.024ZM62.336 228.472L64.2566 226.872L64.2566 226.872L62.336 228.472ZM63.104 255.48L65.2188 256.813L65.2188 256.813L63.104 255.48ZM52.352 264.952L53.4862 267.18L53.4862 267.18L52.352 264.952ZM35.328 266.036C30.1863 266.036 25.0217 265.073 19.8218 263.123L18.0662 267.805C23.789 269.951 29.547 271.036 35.328 271.036V266.036ZM19.834 263.128C14.757 261.194 10.2076 258.376 6.17264 254.664L2.78736 258.344C7.28577 262.482 12.379 265.638 18.054 267.8L19.834 263.128ZM6.40211 258.103L17.1541 245.175L13.3099 241.977L2.55789 254.905L6.40211 258.103ZM13.605 245.474C16.7808 248.196 20.3173 250.417 24.2056 252.135L26.2264 247.561C22.776 246.037 19.6565 244.076 16.859 241.678L13.605 245.474ZM24.2056 252.135C28.1381 253.872 32.0231 254.78 35.84 254.78V249.78C32.8302 249.78 29.6326 249.066 26.2264 247.561L24.2056 252.135ZM35.84 254.78C39.9868 254.78 43.5525 254.03 46.0726 252.082L43.0154 248.126C41.7808 249.08 39.5438 249.78 35.84 249.78V254.78ZM46.03 252.114C48.6409 250.185 49.988 247.471 49.988 244.216H44.988C44.988 245.911 44.3725 247.122 43.058 248.094L46.03 252.114ZM49.988 244.216C49.988 242.539 49.6339 240.949 48.8207 239.541C48.0036 238.127 46.8059 237.041 45.3453 236.255L42.9748 240.657C43.7328 241.065 44.1991 241.537 44.4913 242.043C44.7874 242.555 44.988 243.247 44.988 244.216H49.988ZM45.4462 236.312C43.1679 234.945 40.1443 233.484 36.4213 231.926L34.4907 236.538C38.1064 238.052 40.8855 239.407 42.8738 240.6L45.4462 236.312ZM36.431 231.93L25.551 227.322L23.601 231.926L34.481 236.534L36.431 231.93ZM25.5524 227.323C22.9409 226.215 20.4348 224.745 18.0331 222.904L14.9909 226.872C17.7092 228.956 20.5791 230.644 23.5996 231.925L25.5524 227.323ZM18.0737 222.936C15.7836 221.104 13.9054 218.848 12.4371 216.143L8.04287 218.529C9.8173 221.797 12.1204 224.576 14.9503 226.84L18.0737 222.936ZM12.4371 216.143C11.0476 213.584 10.308 210.509 10.308 206.84H5.308C5.308 211.192 6.18977 215.115 8.04287 218.529L12.4371 216.143ZM10.308 206.84C10.308 202.708 11.4088 199.008 13.6074 195.672L9.43261 192.92C6.68182 197.094 5.308 201.756 5.308 206.84H10.308ZM13.5856 195.704C15.8838 192.334 19.0421 189.618 23.134 187.572L20.898 183.1C16.1153 185.491 12.2762 188.749 9.45443 192.888L13.5856 195.704ZM23.1171 187.58C27.2485 185.554 32.025 184.508 37.504 184.508V179.508C31.3776 179.508 25.8288 180.681 20.9149 183.092L23.1171 187.58ZM37.504 184.508C41.9472 184.508 46.4166 185.379 50.9259 187.151L52.7541 182.497C47.7061 180.514 42.6182 179.508 37.504 179.508V184.508ZM50.9259 187.151C55.3888 188.904 59.2785 191.446 62.6162 194.784L66.1518 191.248C62.3215 187.418 57.8485 184.498 52.7541 182.497L50.9259 187.151ZM62.438 191.447L52.838 203.351L56.73 206.489L66.33 194.585L62.438 191.447ZM56.3231 202.95C53.4411 200.698 50.5118 198.95 47.5329 197.74L45.6511 202.372C48.1336 203.381 50.6655 204.875 53.2449 206.89L56.3231 202.95ZM47.594 197.766C44.5125 196.417 41.1366 195.764 37.504 195.764V200.764C40.5274 200.764 43.2102 201.305 45.59 202.346L47.594 197.766ZM37.504 195.764C33.9289 195.764 30.7756 196.516 28.2683 198.26L31.1237 202.364C32.5417 201.378 34.5938 200.764 37.504 200.764V195.764ZM28.2877 198.246C25.6865 200.02 24.38 202.651 24.38 205.816H29.38C29.38 204.203 29.9509 203.164 31.1043 202.378L28.2877 198.246ZM24.38 205.816C24.38 207.5 24.778 209.09 25.6534 210.497C26.524 211.896 27.7796 212.974 29.2834 213.78L31.6446 209.372C30.7591 208.898 30.2227 208.376 29.8986 207.855C29.5794 207.342 29.38 206.692 29.38 205.816H24.38ZM29.3154 213.797C31.8793 215.123 34.9836 216.52 38.614 217.989L40.49 213.355C36.9524 211.923 33.998 210.589 31.6126 209.355L29.3154 213.797ZM38.614 217.989L49.366 222.341L51.242 217.707L40.49 213.355L38.614 217.989ZM49.362 222.34C54.0797 224.259 57.7316 226.852 60.4154 230.072L64.2566 226.872C60.967 222.924 56.5977 219.885 51.246 217.708L49.362 222.34ZM60.4154 230.072C62.9381 233.1 64.316 237.22 64.316 242.68H69.316C69.316 236.364 67.7072 231.012 64.2566 226.872L60.4154 230.072ZM64.316 242.68C64.316 246.813 63.2141 250.618 60.9892 254.147L65.2188 256.813C67.9433 252.492 69.316 247.763 69.316 242.68H64.316ZM60.9892 254.147C58.7859 257.642 55.5649 260.511 51.2178 262.724L53.4862 267.18C58.5257 264.614 62.4728 261.169 65.2188 256.813L60.9892 254.147ZM51.2178 262.724C46.9562 264.894 41.6911 266.036 35.328 266.036V271.036C42.2769 271.036 48.3611 269.789 53.4862 267.18L51.2178 262.724ZM111.377 267H108.877V269.5H111.377V267ZM111.377 199.416H113.877V196.916H111.377V199.416ZM88.465 199.416H85.965V201.916H88.465V199.416ZM88.465 183.544V181.044H85.965V183.544H88.465ZM153.233 183.544H155.733V181.044H153.233V183.544ZM153.233 199.416V201.916H155.733V199.416H153.233ZM130.321 199.416V196.916H127.821V199.416H130.321ZM130.321 267V269.5H132.821V267H130.321ZM113.877 267V199.416H108.877V267H113.877ZM111.377 196.916H88.465V201.916H111.377V196.916ZM90.965 199.416V183.544H85.965V199.416H90.965ZM88.465 186.044H153.233V181.044H88.465V186.044ZM150.733 183.544V199.416H155.733V183.544H150.733ZM153.233 196.916H130.321V201.916H153.233V196.916ZM127.821 199.416V267H132.821V199.416H127.821ZM130.321 264.5H111.377V269.5H130.321V264.5ZM188.724 265.464L187.834 267.8L187.846 267.805L188.724 265.464ZM174.26 256.504L172.338 254.905L170.817 256.734L172.567 258.344L174.26 256.504ZM185.012 243.576L186.639 241.678L184.712 240.027L183.09 241.977L185.012 243.576ZM194.996 249.848L193.986 252.135L193.986 252.135L194.996 249.848ZM214.324 250.104L212.838 248.094L212.817 248.109L212.795 248.126L214.324 250.104ZM213.94 238.456L212.654 240.6L212.704 240.63L212.755 240.657L213.94 238.456ZM205.236 234.232L204.261 236.534L204.271 236.538L205.236 234.232ZM194.356 229.624L193.38 231.925L193.381 231.926L194.356 229.624ZM186.292 224.888L184.73 226.84L184.75 226.856L184.771 226.872L186.292 224.888ZM181.3 194.296L179.234 192.888L179.223 192.904L179.213 192.92L181.3 194.296ZM191.796 185.336L190.695 183.092L190.686 183.096L190.678 183.1L191.796 185.336ZM221.62 184.824L222.534 182.497L222.534 182.497L221.62 184.824ZM234.164 193.016L236.11 194.585L237.52 192.837L235.932 191.248L234.164 193.016ZM224.564 204.92L223.025 206.89L224.965 208.406L226.51 206.489L224.564 204.92ZM216.372 200.056L215.37 202.346L215.4 202.36L215.431 202.372L216.372 200.056ZM199.476 200.312L200.884 202.378L200.894 202.371L200.904 202.364L199.476 200.312ZM200.244 211.576L199.063 213.78L199.079 213.788L199.095 213.797L200.244 211.576ZM209.332 215.672L210.27 213.355L210.27 213.355L209.332 215.672ZM220.084 220.024L221.026 217.708L221.022 217.707L220.084 220.024ZM232.116 228.472L234.037 226.872L234.037 226.872L232.116 228.472ZM232.884 255.48L234.999 256.813L234.999 256.813L232.884 255.48ZM222.132 264.952L223.266 267.18L223.266 267.18L222.132 264.952ZM205.108 266.036C199.966 266.036 194.802 265.073 189.602 263.123L187.846 267.805C193.569 269.951 199.327 271.036 205.108 271.036V266.036ZM189.614 263.128C184.537 261.194 179.988 258.376 175.953 254.664L172.567 258.344C177.066 262.482 182.159 265.638 187.834 267.8L189.614 263.128ZM176.182 258.103L186.934 245.175L183.09 241.977L172.338 254.905L176.182 258.103ZM183.385 245.474C186.561 248.196 190.097 250.417 193.986 252.135L196.006 247.561C192.556 246.037 189.437 244.076 186.639 241.678L183.385 245.474ZM193.986 252.135C197.918 253.872 201.803 254.78 205.62 254.78V249.78C202.61 249.78 199.413 249.066 196.006 247.561L193.986 252.135ZM205.62 254.78C209.767 254.78 213.333 254.03 215.853 252.082L212.795 248.126C211.561 249.08 209.324 249.78 205.62 249.78V254.78ZM215.81 252.114C218.421 250.185 219.768 247.471 219.768 244.216H214.768C214.768 245.911 214.152 247.122 212.838 248.094L215.81 252.114ZM219.768 244.216C219.768 242.539 219.414 240.949 218.601 239.541C217.784 238.127 216.586 237.041 215.125 236.255L212.755 240.657C213.513 241.065 213.979 241.537 214.271 242.043C214.567 242.555 214.768 243.247 214.768 244.216H219.768ZM215.226 236.312C212.948 234.945 209.924 233.484 206.201 231.926L204.271 236.538C207.886 238.052 210.665 239.407 212.654 240.6L215.226 236.312ZM206.211 231.93L195.331 227.322L193.381 231.926L204.261 236.534L206.211 231.93ZM195.332 227.323C192.721 226.215 190.215 224.745 187.813 222.904L184.771 226.872C187.489 228.956 190.359 230.644 193.38 231.925L195.332 227.323ZM187.854 222.936C185.564 221.104 183.685 218.848 182.217 216.143L177.823 218.529C179.597 221.797 181.9 224.576 184.73 226.84L187.854 222.936ZM182.217 216.143C180.828 213.584 180.088 210.509 180.088 206.84H175.088C175.088 211.192 175.97 215.115 177.823 218.529L182.217 216.143ZM180.088 206.84C180.088 202.708 181.189 199.008 183.387 195.672L179.213 192.92C176.462 197.094 175.088 201.756 175.088 206.84H180.088ZM183.366 195.704C185.664 192.334 188.822 189.618 192.914 187.572L190.678 183.1C185.895 185.491 182.056 188.749 179.234 192.888L183.366 195.704ZM192.897 187.58C197.028 185.554 201.805 184.508 207.284 184.508V179.508C201.158 179.508 195.609 180.681 190.695 183.092L192.897 187.58ZM207.284 184.508C211.727 184.508 216.197 185.379 220.706 187.151L222.534 182.497C217.486 180.514 212.398 179.508 207.284 179.508V184.508ZM220.706 187.151C225.169 188.904 229.059 191.446 232.396 194.784L235.932 191.248C232.101 187.418 227.628 184.498 222.534 182.497L220.706 187.151ZM232.218 191.447L222.618 203.351L226.51 206.489L236.11 194.585L232.218 191.447ZM226.103 202.95C223.221 200.698 220.292 198.95 217.313 197.74L215.431 202.372C217.914 203.381 220.446 204.875 223.025 206.89L226.103 202.95ZM217.374 197.766C214.292 196.417 210.917 195.764 207.284 195.764V200.764C210.307 200.764 212.99 201.305 215.37 202.346L217.374 197.766ZM207.284 195.764C203.709 195.764 200.556 196.516 198.048 198.26L200.904 202.364C202.322 201.378 204.374 200.764 207.284 200.764V195.764ZM198.068 198.246C195.466 200.02 194.16 202.651 194.16 205.816H199.16C199.16 204.203 199.731 203.164 200.884 202.378L198.068 198.246ZM194.16 205.816C194.16 207.5 194.558 209.09 195.433 210.497C196.304 211.896 197.56 212.974 199.063 213.78L201.425 209.372C200.539 208.898 200.003 208.376 199.679 207.855C199.359 207.342 199.16 206.692 199.16 205.816H194.16ZM199.095 213.797C201.659 215.123 204.764 216.52 208.394 217.989L210.27 213.355C206.732 211.923 203.778 210.589 201.393 209.355L199.095 213.797ZM208.394 217.989L219.146 222.341L221.022 217.707L210.27 213.355L208.394 217.989ZM219.142 222.34C223.86 224.259 227.512 226.852 230.195 230.072L234.037 226.872C230.747 222.924 226.378 219.885 221.026 217.708L219.142 222.34ZM230.195 230.072C232.718 233.1 234.096 237.22 234.096 242.68H239.096C239.096 236.364 237.487 231.012 234.037 226.872L230.195 230.072ZM234.096 242.68C234.096 246.813 232.994 250.618 230.769 254.147L234.999 256.813C237.723 252.492 239.096 247.763 239.096 242.68H234.096ZM230.769 254.147C228.566 257.642 225.345 260.511 220.998 262.724L223.266 267.18C228.306 264.614 232.253 261.169 234.999 256.813L230.769 254.147ZM220.998 262.724C216.736 264.894 211.471 266.036 205.108 266.036V271.036C212.057 271.036 218.141 269.789 223.266 267.18L220.998 262.724ZM267.401 267H264.901V269.5H267.401V267ZM267.401 183.544V181.044H264.901V183.544H267.401ZM286.217 183.544H288.717V181.044H286.217V183.544ZM286.217 217.72H283.717V220.22H286.217V217.72ZM286.729 217.72V220.22H288.003L288.751 219.19L286.729 217.72ZM311.561 183.544V181.044H310.287L309.538 182.074L311.561 183.544ZM332.297 183.544L334.29 185.054L337.328 181.044H332.297V183.544ZM307.081 216.824L305.088 215.314L304.072 216.655L304.932 218.101L307.081 216.824ZM336.905 267V269.5H341.299L339.054 265.723L336.905 267ZM316.297 267L314.133 268.251L314.855 269.5H316.297V267ZM295.945 231.8L298.109 230.549L296.228 227.295L293.955 230.287L295.945 231.8ZM286.217 244.6L284.227 243.087L283.717 243.758V244.6H286.217ZM286.217 267V269.5H288.717V267H286.217ZM269.901 267V183.544H264.901V267H269.901ZM267.401 186.044H286.217V181.044H267.401V186.044ZM283.717 183.544V217.72H288.717V183.544H283.717ZM286.217 220.22H286.729V215.22H286.217V220.22ZM288.751 219.19L313.583 185.014L309.538 182.074L284.706 216.25L288.751 219.19ZM311.561 186.044H332.297V181.044H311.561V186.044ZM330.304 182.034L305.088 215.314L309.074 218.334L334.29 185.054L330.304 182.034ZM304.932 218.101L334.756 268.277L339.054 265.723L309.23 215.547L304.932 218.101ZM336.905 264.5H316.297V269.5H336.905V264.5ZM318.461 265.749L298.109 230.549L293.781 233.051L314.133 268.251L318.461 265.749ZM293.955 230.287L284.227 243.087L288.207 246.113L297.935 233.313L293.955 230.287ZM283.717 244.6V267H288.717V244.6H283.717ZM286.217 264.5H267.401V269.5H286.217V264.5ZM362.666 267H360.166V269.5H362.666V267ZM362.666 183.544V181.044H360.166V183.544H362.666ZM381.994 183.544L384.208 182.382L383.506 181.044H381.994V183.544ZM403.754 225.016L406.039 224.001L406.006 223.926L405.968 223.854L403.754 225.016ZM411.946 243.448L409.661 244.463L410.321 245.948H411.946V243.448ZM412.458 243.448V245.948H415.158L414.951 243.256L412.458 243.448ZM411.05 228.6L408.565 228.872L408.565 228.872L411.05 228.6ZM410.154 183.544V181.044H407.654V183.544H410.154ZM428.074 183.544H430.574V181.044H428.074V183.544ZM428.074 267V269.5H430.574V267H428.074ZM408.746 267L406.531 268.159L407.232 269.5H408.746V267ZM386.986 225.4L384.707 226.427L384.737 226.494L384.771 226.559L386.986 225.4ZM378.794 207.224L381.073 206.197L380.409 204.724H378.794V207.224ZM378.282 207.224V204.724H375.54L375.793 207.454L378.282 207.224ZM379.69 222.072L377.202 222.313L377.204 222.333L377.206 222.352L379.69 222.072ZM380.586 267V269.5H383.086V267H380.586ZM365.166 267V183.544H360.166V267H365.166ZM362.666 186.044H381.994V181.044H362.666V186.044ZM379.78 184.706L401.54 226.178L405.968 223.854L384.208 182.382L379.78 184.706ZM401.469 226.031L409.661 244.463L414.231 242.433L406.039 224.001L401.469 226.031ZM411.946 245.948H412.458V240.948H411.946V245.948ZM414.951 243.256C414.607 238.787 414.135 233.81 413.535 228.328L408.565 228.872C409.16 234.312 409.626 239.234 409.965 243.64L414.951 243.256ZM413.535 228.328C412.947 222.947 412.654 217.833 412.654 212.984H407.654C407.654 218.033 407.959 223.33 408.565 228.872L413.535 228.328ZM412.654 212.984V183.544H407.654V212.984H412.654ZM410.154 186.044H428.074V181.044H410.154V186.044ZM425.574 183.544V267H430.574V183.544H425.574ZM428.074 264.5H408.746V269.5H428.074V264.5ZM410.961 265.841L389.201 224.241L384.771 226.559L406.531 268.159L410.961 265.841ZM389.265 224.373L381.073 206.197L376.515 208.251L384.707 226.427L389.265 224.373ZM378.794 204.724H378.282V209.724H378.794V204.724ZM375.793 207.454C376.22 212.066 376.689 217.019 377.202 222.313L382.178 221.831C381.667 216.543 381.198 211.598 380.771 206.994L375.793 207.454ZM377.206 222.352C377.793 227.557 378.086 232.583 378.086 237.432H383.086C383.086 232.382 382.781 227.168 382.174 221.792L377.206 222.352ZM378.086 237.432V267H383.086V237.432H378.086ZM380.586 264.5H362.666V269.5H380.586V264.5ZM478.511 263.288L477.192 265.412L477.199 265.416L477.206 265.42L478.511 263.288ZM465.199 248.312L462.946 249.395L462.954 249.412L462.963 249.43L465.199 248.312ZM465.199 201.72L462.969 200.59L462.963 200.602L465.199 201.72ZM478.511 187.128L479.783 189.28L479.793 189.275L478.511 187.128ZM518.063 187.128L516.767 189.266L516.786 189.277L516.805 189.289L518.063 187.128ZM531.375 201.72L529.133 202.826L529.139 202.838L529.145 202.85L531.375 201.72ZM531.375 248.312L529.133 247.206L529.127 247.218L531.375 248.312ZM518.063 263.288L516.758 261.156L516.751 261.16L516.744 261.164L518.063 263.288ZM511.919 244.856L509.844 243.461L509.844 243.461L511.919 244.856ZM511.919 205.304L513.958 203.858L513.958 203.858L511.919 205.304ZM484.783 205.304L482.744 203.858L482.744 203.858L484.783 205.304ZM484.783 244.856L486.858 243.461L486.858 243.461L484.783 244.856ZM498.351 266.036C491.245 266.036 485.095 264.386 479.816 261.156L477.206 265.42C483.362 269.188 490.438 271.036 498.351 271.036V266.036ZM479.83 261.164C474.627 257.932 470.491 253.306 467.435 247.194L462.963 249.43C466.392 256.289 471.131 261.646 477.192 265.412L479.83 261.164ZM467.452 247.229C464.492 241.068 462.963 233.647 462.963 224.888H457.963C457.963 234.22 459.592 242.415 462.946 249.395L467.452 247.229ZM462.963 224.888C462.963 216.035 464.495 208.719 467.435 202.838L462.963 200.602C459.589 207.35 457.963 215.479 457.963 224.888H462.963ZM467.429 202.85C470.478 196.832 474.601 192.343 479.783 189.28L477.239 184.976C471.157 188.569 466.405 193.808 462.969 200.59L467.429 202.85ZM479.793 189.275C485.075 186.121 491.234 184.508 498.351 184.508V179.508C490.449 179.508 483.382 181.308 477.229 184.981L479.793 189.275ZM498.351 184.508C505.469 184.508 511.578 186.121 516.767 189.266L519.359 184.99C513.284 181.308 506.252 179.508 498.351 179.508V184.508ZM516.805 189.289C522.064 192.35 526.175 196.83 529.133 202.826L533.617 200.614C530.26 193.81 525.496 188.562 519.321 184.967L516.805 189.289ZM529.145 202.85C532.17 208.82 533.739 216.135 533.739 224.888H538.739C538.739 215.55 537.065 207.42 533.605 200.59L529.145 202.85ZM533.739 224.888C533.739 233.638 532.171 241.05 529.133 247.206L533.617 249.418C537.064 242.432 538.739 234.229 538.739 224.888H533.739ZM529.127 247.218C526.162 253.308 522.037 257.925 516.758 261.156L519.368 265.42C525.523 261.654 530.273 256.286 533.623 249.406L529.127 247.218ZM516.744 261.164C511.558 264.386 505.458 266.036 498.351 266.036V271.036C506.263 271.036 513.304 269.188 519.382 265.412L516.744 261.164ZM498.351 254.78C504.943 254.78 510.225 251.855 513.994 246.251L509.844 243.461C506.957 247.755 503.194 249.78 498.351 249.78V254.78ZM513.994 246.251C517.69 240.754 519.411 233.555 519.411 224.888H514.411C514.411 232.946 512.804 239.059 509.844 243.461L513.994 246.251ZM519.411 224.888C519.411 216.232 517.694 209.126 513.958 203.858L509.88 206.75C512.8 210.869 514.411 216.819 514.411 224.888H519.411ZM513.958 203.858C510.165 198.509 504.885 195.764 498.351 195.764V200.764C503.252 200.764 507.017 202.713 509.88 206.75L513.958 203.858ZM498.351 195.764C491.817 195.764 486.537 198.509 482.744 203.858L486.822 206.75C489.685 202.713 493.45 200.764 498.351 200.764V195.764ZM482.744 203.858C479.008 209.126 477.291 216.232 477.291 224.888H482.291C482.291 216.819 483.902 210.869 486.822 206.75L482.744 203.858ZM477.291 224.888C477.291 233.555 479.012 240.754 482.708 246.251L486.858 243.461C483.898 239.059 482.291 232.946 482.291 224.888H477.291ZM482.708 246.251C486.477 251.855 491.759 254.78 498.351 254.78V249.78C493.508 249.78 489.745 247.755 486.858 243.461L482.708 246.251Z" fill="#CCEECC"/>
<path d="M26.112 408H23.612V410.5H26.112V408ZM26.112 340.416H28.612V337.916H26.112V340.416ZM3.2 340.416H0.7V342.916H3.2V340.416ZM3.2 324.544V322.044H0.7V324.544H3.2ZM67.968 324.544H70.468V322.044H67.968V324.544ZM67.968 340.416V342.916H70.468V340.416H67.968ZM45.056 340.416V337.916H42.556V340.416H45.056ZM45.056 408V410.5H47.556V408H45.056ZM28.612 408V340.416H23.612V408H28.612ZM26.112 337.916H3.2V342.916H26.112V337.916ZM5.7 340.416V324.544H0.7V340.416H5.7ZM3.2 327.044H67.968V322.044H3.2V327.044ZM65.468 324.544V340.416H70.468V324.544H65.468ZM67.968 337.916H45.056V342.916H67.968V337.916ZM42.556 340.416V408H47.556V340.416H42.556ZM45.056 405.5H26.112V410.5H45.056V405.5ZM103.459 406.464L102.569 408.8L102.581 408.805L103.459 406.464ZM88.995 397.504L87.0729 395.905L85.5523 397.734L87.3024 399.344L88.995 397.504ZM99.747 384.576L101.374 382.678L99.4474 381.027L97.8249 382.977L99.747 384.576ZM109.731 390.848L108.721 393.135L108.721 393.135L109.731 390.848ZM129.059 391.104L127.573 389.094L127.552 389.109L127.53 389.126L129.059 391.104ZM128.675 379.456L127.389 381.6L127.439 381.63L127.49 381.657L128.675 379.456ZM119.971 375.232L118.996 377.534L119.006 377.538L119.971 375.232ZM109.091 370.624L108.115 372.925L108.116 372.926L109.091 370.624ZM101.027 365.888L99.4653 367.84L99.4854 367.856L99.5059 367.872L101.027 365.888ZM96.035 335.296L93.9694 333.888L93.9584 333.904L93.9476 333.92L96.035 335.296ZM106.531 326.336L105.43 324.092L105.421 324.096L105.413 324.1L106.531 326.336ZM136.355 325.824L137.269 323.497L137.269 323.497L136.355 325.824ZM148.899 334.016L150.845 335.585L152.255 333.837L150.667 332.248L148.899 334.016ZM139.299 345.92L137.76 347.89L139.7 349.406L141.245 347.489L139.299 345.92ZM131.107 341.056L130.105 343.346L130.135 343.36L130.166 343.372L131.107 341.056ZM114.211 341.312L115.619 343.378L115.629 343.371L115.639 343.364L114.211 341.312ZM114.979 352.576L113.798 354.78L113.814 354.788L113.83 354.797L114.979 352.576ZM124.067 356.672L125.005 354.355L125.005 354.355L124.067 356.672ZM134.819 361.024L135.761 358.708L135.757 358.707L134.819 361.024ZM146.851 369.472L148.772 367.872L148.772 367.872L146.851 369.472ZM147.619 396.48L149.734 397.813L149.734 397.813L147.619 396.48ZM136.867 405.952L138.001 408.18L138.001 408.18L136.867 405.952ZM119.843 407.036C114.701 407.036 109.537 406.073 104.337 404.123L102.581 408.805C108.304 410.951 114.062 412.036 119.843 412.036V407.036ZM104.349 404.128C99.272 402.194 94.7226 399.376 90.6876 395.664L87.3024 399.344C91.8008 403.482 96.894 406.638 102.569 408.8L104.349 404.128ZM90.9171 399.103L101.669 386.175L97.8249 382.977L87.0729 395.905L90.9171 399.103ZM98.12 386.474C101.296 389.196 104.832 391.417 108.721 393.135L110.741 388.561C107.291 387.037 104.172 385.076 101.374 382.678L98.12 386.474ZM108.721 393.135C112.653 394.872 116.538 395.78 120.355 395.78V390.78C117.345 390.78 114.148 390.066 110.741 388.561L108.721 393.135ZM120.355 395.78C124.502 395.78 128.068 395.03 130.588 393.082L127.53 389.126C126.296 390.08 124.059 390.78 120.355 390.78V395.78ZM130.545 393.114C133.156 391.185 134.503 388.471 134.503 385.216H129.503C129.503 386.911 128.887 388.122 127.573 389.094L130.545 393.114ZM134.503 385.216C134.503 383.539 134.149 381.949 133.336 380.541C132.519 379.127 131.321 378.041 129.86 377.255L127.49 381.657C128.248 382.065 128.714 382.537 129.006 383.043C129.302 383.555 129.503 384.247 129.503 385.216H134.503ZM129.961 377.312C127.683 375.945 124.659 374.484 120.936 372.926L119.006 377.538C122.621 379.052 125.4 380.407 127.389 381.6L129.961 377.312ZM120.946 372.93L110.066 368.322L108.116 372.926L118.996 377.534L120.946 372.93ZM110.067 368.323C107.456 367.215 104.95 365.745 102.548 363.904L99.5059 367.872C102.224 369.956 105.094 371.644 108.115 372.925L110.067 368.323ZM102.589 363.936C100.299 362.104 98.4204 359.848 96.9521 357.143L92.5579 359.529C94.3323 362.797 96.6354 365.576 99.4653 367.84L102.589 363.936ZM96.9521 357.143C95.5626 354.584 94.823 351.509 94.823 347.84H89.823C89.823 352.192 90.7048 356.115 92.5579 359.529L96.9521 357.143ZM94.823 347.84C94.823 343.708 95.9238 340.008 98.1224 336.672L93.9476 333.92C91.1968 338.094 89.823 342.756 89.823 347.84H94.823ZM98.1006 336.704C100.399 333.334 103.557 330.618 107.649 328.572L105.413 324.1C100.63 326.491 96.7912 329.749 93.9694 333.888L98.1006 336.704ZM107.632 328.58C111.763 326.554 116.54 325.508 122.019 325.508V320.508C115.893 320.508 110.344 321.681 105.43 324.092L107.632 328.58ZM122.019 325.508C126.462 325.508 130.932 326.379 135.441 328.151L137.269 323.497C132.221 321.514 127.133 320.508 122.019 320.508V325.508ZM135.441 328.151C139.904 329.904 143.794 332.446 147.131 335.784L150.667 332.248C146.836 328.418 142.363 325.498 137.269 323.497L135.441 328.151ZM146.953 332.447L137.353 344.351L141.245 347.489L150.845 335.585L146.953 332.447ZM140.838 343.95C137.956 341.698 135.027 339.95 132.048 338.74L130.166 343.372C132.649 344.381 135.181 345.875 137.76 347.89L140.838 343.95ZM132.109 338.766C129.027 337.417 125.652 336.764 122.019 336.764V341.764C125.042 341.764 127.725 342.305 130.105 343.346L132.109 338.766ZM122.019 336.764C118.444 336.764 115.291 337.516 112.783 339.26L115.639 343.364C117.057 342.378 119.109 341.764 122.019 341.764V336.764ZM112.803 339.246C110.201 341.02 108.895 343.651 108.895 346.816H113.895C113.895 345.203 114.466 344.164 115.619 343.378L112.803 339.246ZM108.895 346.816C108.895 348.5 109.293 350.09 110.168 351.497C111.039 352.896 112.295 353.974 113.798 354.78L116.16 350.372C115.274 349.898 114.738 349.376 114.414 348.855C114.094 348.342 113.895 347.692 113.895 346.816H108.895ZM113.83 354.797C116.394 356.123 119.499 357.52 123.129 358.989L125.005 354.355C121.467 352.923 118.513 351.589 116.128 350.355L113.83 354.797ZM123.129 358.989L133.881 363.341L135.757 358.707L125.005 354.355L123.129 358.989ZM133.877 363.34C138.595 365.259 142.247 367.852 144.93 371.072L148.772 367.872C145.482 363.924 141.113 360.885 135.761 358.708L133.877 363.34ZM144.93 371.072C147.453 374.1 148.831 378.22 148.831 383.68H153.831C153.831 377.364 152.222 372.012 148.772 367.872L144.93 371.072ZM148.831 383.68C148.831 387.813 147.729 391.618 145.504 395.147L149.734 397.813C152.458 393.492 153.831 388.763 153.831 383.68H148.831ZM145.504 395.147C143.301 398.642 140.08 401.511 135.733 403.724L138.001 408.18C143.041 405.614 146.988 402.169 149.734 397.813L145.504 395.147ZM135.733 403.724C131.471 405.894 126.206 407.036 119.843 407.036V412.036C126.792 412.036 132.876 410.789 138.001 408.18L135.733 403.724ZM182.136 408H179.636V410.5H182.136V408ZM182.136 324.544V322.044H179.636V324.544H182.136ZM201.464 324.544L203.678 323.382L202.976 322.044H201.464V324.544ZM223.224 366.016L225.509 365.001L225.476 364.926L225.438 364.854L223.224 366.016ZM231.416 384.448L229.131 385.463L229.791 386.948H231.416V384.448ZM231.928 384.448V386.948H234.628L234.421 384.256L231.928 384.448ZM230.52 369.6L228.035 369.872L228.035 369.872L230.52 369.6ZM229.624 324.544V322.044H227.124V324.544H229.624ZM247.544 324.544H250.044V322.044H247.544V324.544ZM247.544 408V410.5H250.044V408H247.544ZM228.216 408L226.001 409.159L226.702 410.5H228.216V408ZM206.456 366.4L204.177 367.427L204.207 367.494L204.241 367.559L206.456 366.4ZM198.264 348.224L200.543 347.197L199.879 345.724H198.264V348.224ZM197.752 348.224V345.724H195.01L195.263 348.454L197.752 348.224ZM199.16 363.072L196.672 363.313L196.674 363.333L196.676 363.352L199.16 363.072ZM200.056 408V410.5H202.556V408H200.056ZM184.636 408V324.544H179.636V408H184.636ZM182.136 327.044H201.464V322.044H182.136V327.044ZM199.25 325.706L221.01 367.178L225.438 364.854L203.678 323.382L199.25 325.706ZM220.939 367.031L229.131 385.463L233.701 383.433L225.509 365.001L220.939 367.031ZM231.416 386.948H231.928V381.948H231.416V386.948ZM234.421 384.256C234.077 379.787 233.605 374.81 233.005 369.328L228.035 369.872C228.63 375.312 229.096 380.234 229.435 384.64L234.421 384.256ZM233.005 369.328C232.417 363.947 232.124 358.833 232.124 353.984H227.124C227.124 359.033 227.429 364.33 228.035 369.872L233.005 369.328ZM232.124 353.984V324.544H227.124V353.984H232.124ZM229.624 327.044H247.544V322.044H229.624V327.044ZM245.044 324.544V408H250.044V324.544H245.044ZM247.544 405.5H228.216V410.5H247.544V405.5ZM230.431 406.841L208.671 365.241L204.241 367.559L226.001 409.159L230.431 406.841ZM208.735 365.373L200.543 347.197L195.985 349.251L204.177 367.427L208.735 365.373ZM198.264 345.724H197.752V350.724H198.264V345.724ZM195.263 348.454C195.69 353.066 196.159 358.019 196.672 363.313L201.648 362.831C201.137 357.543 200.668 352.598 200.241 347.994L195.263 348.454ZM196.676 363.352C197.263 368.557 197.556 373.583 197.556 378.432H202.556C202.556 373.382 202.251 368.168 201.644 362.792L196.676 363.352ZM197.556 378.432V408H202.556V378.432H197.556ZM200.056 405.5H182.136V410.5H200.056V405.5ZM297.981 404.288L296.662 406.412L296.669 406.416L296.676 406.42L297.981 404.288ZM284.669 389.312L282.416 390.395L282.424 390.412L282.433 390.43L284.669 389.312ZM284.669 342.72L282.439 341.59L282.433 341.602L284.669 342.72ZM297.981 328.128L299.253 330.28L299.263 330.275L297.981 328.128ZM337.533 328.128L336.237 330.266L336.256 330.277L336.275 330.289L337.533 328.128ZM350.845 342.72L348.603 343.826L348.609 343.838L348.615 343.85L350.845 342.72ZM350.845 389.312L348.603 388.206L348.597 388.218L350.845 389.312ZM337.533 404.288L336.228 402.156L336.221 402.16L336.214 402.164L337.533 404.288ZM331.389 385.856L329.314 384.461L329.314 384.461L331.389 385.856ZM331.389 346.304L333.428 344.858L333.428 344.858L331.389 346.304ZM304.253 346.304L302.214 344.858L302.214 344.858L304.253 346.304ZM304.253 385.856L306.328 384.461L306.328 384.461L304.253 385.856ZM317.821 407.036C310.715 407.036 304.565 405.386 299.286 402.156L296.676 406.42C302.832 410.188 309.908 412.036 317.821 412.036V407.036ZM299.3 402.164C294.097 398.932 289.961 394.306 286.905 388.194L282.433 390.43C285.862 397.289 290.601 402.646 296.662 406.412L299.3 402.164ZM286.922 388.229C283.962 382.068 282.433 374.647 282.433 365.888H277.433C277.433 375.22 279.062 383.415 282.416 390.395L286.922 388.229ZM282.433 365.888C282.433 357.035 283.965 349.719 286.905 343.838L282.433 341.602C279.059 348.35 277.433 356.479 277.433 365.888H282.433ZM286.899 343.85C289.948 337.832 294.07 333.343 299.253 330.28L296.709 325.976C290.627 329.569 285.875 334.808 282.439 341.59L286.899 343.85ZM299.263 330.275C304.545 327.121 310.704 325.508 317.821 325.508V320.508C309.919 320.508 302.852 322.308 296.699 325.981L299.263 330.275ZM317.821 325.508C324.939 325.508 331.048 327.121 336.237 330.266L338.829 325.99C332.754 322.308 325.722 320.508 317.821 320.508V325.508ZM336.275 330.289C341.534 333.35 345.645 337.83 348.603 343.826L353.087 341.614C349.73 334.81 344.966 329.562 338.791 325.967L336.275 330.289ZM348.615 343.85C351.64 349.82 353.209 357.135 353.209 365.888H358.209C358.209 356.55 356.535 348.42 353.075 341.59L348.615 343.85ZM353.209 365.888C353.209 374.638 351.641 382.05 348.603 388.206L353.087 390.418C356.534 383.432 358.209 375.229 358.209 365.888H353.209ZM348.597 388.218C345.632 394.308 341.507 398.925 336.228 402.156L338.838 406.42C344.993 402.654 349.743 397.286 353.093 390.406L348.597 388.218ZM336.214 402.164C331.028 405.386 324.927 407.036 317.821 407.036V412.036C325.733 412.036 332.774 410.188 338.852 406.412L336.214 402.164ZM317.821 395.78C324.413 395.78 329.695 392.855 333.464 387.251L329.314 384.461C326.427 388.755 322.664 390.78 317.821 390.78V395.78ZM333.464 387.251C337.16 381.754 338.881 374.555 338.881 365.888H333.881C333.881 373.946 332.274 380.059 329.314 384.461L333.464 387.251ZM338.881 365.888C338.881 357.232 337.164 350.126 333.428 344.858L329.35 347.75C332.27 351.869 333.881 357.819 333.881 365.888H338.881ZM333.428 344.858C329.635 339.509 324.355 336.764 317.821 336.764V341.764C322.722 341.764 326.487 343.713 329.35 347.75L333.428 344.858ZM317.821 336.764C311.287 336.764 306.007 339.509 302.214 344.858L306.292 347.75C309.155 343.713 312.92 341.764 317.821 341.764V336.764ZM302.214 344.858C298.478 350.126 296.761 357.232 296.761 365.888H301.761C301.761 357.819 303.372 351.869 306.292 347.75L302.214 344.858ZM296.761 365.888C296.761 374.555 298.482 381.754 302.178 387.251L306.328 384.461C303.368 380.059 301.761 373.946 301.761 365.888H296.761ZM302.178 387.251C305.947 392.855 311.229 395.78 317.821 395.78V390.78C312.978 390.78 309.215 388.755 306.328 384.461L302.178 387.251ZM388.041 408H385.541V410.5H388.041V408ZM388.041 324.544V322.044H385.541V324.544H388.041ZM406.857 324.544H409.357V322.044H406.857V324.544ZM406.857 358.72H404.357V361.22H406.857V358.72ZM407.369 358.72V361.22H408.643L409.391 360.19L407.369 358.72ZM432.201 324.544V322.044H430.927L430.179 323.074L432.201 324.544ZM452.937 324.544L454.93 326.054L457.968 322.044H452.937V324.544ZM427.721 357.824L425.728 356.314L424.712 357.655L425.572 359.101L427.721 357.824ZM457.545 408V410.5H461.939L459.694 406.723L457.545 408ZM436.937 408L434.773 409.251L435.495 410.5H436.937V408ZM416.585 372.8L418.749 371.549L416.868 368.295L414.595 371.287L416.585 372.8ZM406.857 385.6L404.867 384.087L404.357 384.758V385.6H406.857ZM406.857 408V410.5H409.357V408H406.857ZM390.541 408V324.544H385.541V408H390.541ZM388.041 327.044H406.857V322.044H388.041V327.044ZM404.357 324.544V358.72H409.357V324.544H404.357ZM406.857 361.22H407.369V356.22H406.857V361.22ZM409.391 360.19L434.223 326.014L430.179 323.074L405.347 357.25L409.391 360.19ZM432.201 327.044H452.937V322.044H432.201V327.044ZM450.944 323.034L425.728 356.314L429.714 359.334L454.93 326.054L450.944 323.034ZM425.572 359.101L455.396 409.277L459.694 406.723L429.87 356.547L425.572 359.101ZM457.545 405.5H436.937V410.5H457.545V405.5ZM439.101 406.749L418.749 371.549L414.421 374.051L434.773 409.251L439.101 406.749ZM414.595 371.287L404.867 384.087L408.847 387.113L418.575 374.313L414.595 371.287ZM404.357 385.6V408H409.357V385.6H404.357ZM406.857 405.5H388.041V410.5H406.857V405.5ZM489.894 406.464L489.004 408.8L489.016 408.805L489.894 406.464ZM475.43 397.504L473.508 395.905L471.987 397.734L473.737 399.344L475.43 397.504ZM486.182 384.576L487.809 382.678L485.882 381.027L484.26 382.977L486.182 384.576ZM496.166 390.848L495.156 393.135L495.156 393.135L496.166 390.848ZM515.494 391.104L514.008 389.094L513.987 389.109L513.965 389.126L515.494 391.104ZM515.11 379.456L513.824 381.6L513.874 381.63L513.925 381.657L515.11 379.456ZM506.406 375.232L505.431 377.534L505.441 377.538L506.406 375.232ZM495.526 370.624L494.55 372.925L494.551 372.926L495.526 370.624ZM487.462 365.888L485.9 367.84L485.92 367.856L485.941 367.872L487.462 365.888ZM482.47 335.296L480.404 333.888L480.393 333.904L480.383 333.92L482.47 335.296ZM492.966 326.336L491.865 324.092L491.856 324.096L491.848 324.1L492.966 326.336ZM522.79 325.824L523.704 323.497L523.704 323.497L522.79 325.824ZM535.334 334.016L537.28 335.585L538.69 333.837L537.102 332.248L535.334 334.016ZM525.734 345.92L524.195 347.89L526.135 349.406L527.68 347.489L525.734 345.92ZM517.542 341.056L516.54 343.346L516.57 343.36L516.601 343.372L517.542 341.056ZM500.646 341.312L502.054 343.378L502.064 343.371L502.074 343.364L500.646 341.312ZM501.414 352.576L500.233 354.78L500.249 354.788L500.265 354.797L501.414 352.576ZM510.502 356.672L511.44 354.355L511.44 354.355L510.502 356.672ZM521.254 361.024L522.196 358.708L522.192 358.707L521.254 361.024ZM533.286 369.472L535.207 367.872L535.207 367.872L533.286 369.472ZM534.054 396.48L536.169 397.813L536.169 397.813L534.054 396.48ZM523.302 405.952L524.436 408.18L524.436 408.18L523.302 405.952ZM506.278 407.036C501.136 407.036 495.972 406.073 490.772 404.123L489.016 408.805C494.739 410.951 500.497 412.036 506.278 412.036V407.036ZM490.784 404.128C485.707 402.194 481.158 399.376 477.123 395.664L473.737 399.344C478.236 403.482 483.329 406.638 489.004 408.8L490.784 404.128ZM477.352 399.103L488.104 386.175L484.26 382.977L473.508 395.905L477.352 399.103ZM484.555 386.474C487.731 389.196 491.267 391.417 495.156 393.135L497.176 388.561C493.726 387.037 490.607 385.076 487.809 382.678L484.555 386.474ZM495.156 393.135C499.088 394.872 502.973 395.78 506.79 395.78V390.78C503.78 390.78 500.583 390.066 497.176 388.561L495.156 393.135ZM506.79 395.78C510.937 395.78 514.503 395.03 517.023 393.082L513.965 389.126C512.731 390.08 510.494 390.78 506.79 390.78V395.78ZM516.98 393.114C519.591 391.185 520.938 388.471 520.938 385.216H515.938C515.938 386.911 515.322 388.122 514.008 389.094L516.98 393.114ZM520.938 385.216C520.938 383.539 520.584 381.949 519.771 380.541C518.954 379.127 517.756 378.041 516.295 377.255L513.925 381.657C514.683 382.065 515.149 382.537 515.441 383.043C515.737 383.555 515.938 384.247 515.938 385.216H520.938ZM516.396 377.312C514.118 375.945 511.094 374.484 507.371 372.926L505.441 377.538C509.056 379.052 511.836 380.407 513.824 381.6L516.396 377.312ZM507.381 372.93L496.501 368.322L494.551 372.926L505.431 377.534L507.381 372.93ZM496.502 368.323C493.891 367.215 491.385 365.745 488.983 363.904L485.941 367.872C488.659 369.956 491.529 371.644 494.55 372.925L496.502 368.323ZM489.024 363.936C486.734 362.104 484.855 359.848 483.387 357.143L478.993 359.529C480.767 362.797 483.07 365.576 485.9 367.84L489.024 363.936ZM483.387 357.143C481.998 354.584 481.258 351.509 481.258 347.84H476.258C476.258 352.192 477.14 356.115 478.993 359.529L483.387 357.143ZM481.258 347.84C481.258 343.708 482.359 340.008 484.557 336.672L480.383 333.92C477.632 338.094 476.258 342.756 476.258 347.84H481.258ZM484.536 336.704C486.834 333.334 489.992 330.618 494.084 328.572L491.848 324.1C487.065 326.491 483.226 329.749 480.404 333.888L484.536 336.704ZM494.067 328.58C498.199 326.554 502.975 325.508 508.454 325.508V320.508C502.328 320.508 496.779 321.681 491.865 324.092L494.067 328.58ZM508.454 325.508C512.897 325.508 517.367 326.379 521.876 328.151L523.704 323.497C518.656 321.514 513.568 320.508 508.454 320.508V325.508ZM521.876 328.151C526.339 329.904 530.229 332.446 533.566 335.784L537.102 332.248C533.271 328.418 528.799 325.498 523.704 323.497L521.876 328.151ZM533.388 332.447L523.788 344.351L527.68 347.489L537.28 335.585L533.388 332.447ZM527.273 343.95C524.391 341.698 521.462 339.95 518.483 338.74L516.601 343.372C519.084 344.381 521.616 345.875 524.195 347.89L527.273 343.95ZM518.544 338.766C515.462 337.417 512.087 336.764 508.454 336.764V341.764C511.477 341.764 514.16 342.305 516.54 343.346L518.544 338.766ZM508.454 336.764C504.879 336.764 501.726 337.516 499.218 339.26L502.074 343.364C503.492 342.378 505.544 341.764 508.454 341.764V336.764ZM499.238 339.246C496.636 341.02 495.33 343.651 495.33 346.816H500.33C500.33 345.203 500.901 344.164 502.054 343.378L499.238 339.246ZM495.33 346.816C495.33 348.5 495.728 350.09 496.603 351.497C497.474 352.896 498.73 353.974 500.233 354.78L502.595 350.372C501.709 349.898 501.173 349.376 500.849 348.855C500.529 348.342 500.33 347.692 500.33 346.816H495.33ZM500.265 354.797C502.829 356.123 505.934 357.52 509.564 358.989L511.44 354.355C507.902 352.923 504.948 351.589 502.563 350.355L500.265 354.797ZM509.564 358.989L520.316 363.341L522.192 358.707L511.44 354.355L509.564 358.989ZM520.312 363.34C525.03 365.259 528.682 367.852 531.365 371.072L535.207 367.872C531.917 363.924 527.548 360.885 522.196 358.708L520.312 363.34ZM531.365 371.072C533.888 374.1 535.266 378.22 535.266 383.68H540.266C540.266 377.364 538.657 372.012 535.207 367.872L531.365 371.072ZM535.266 383.68C535.266 387.813 534.164 391.618 531.939 395.147L536.169 397.813C538.893 393.492 540.266 388.763 540.266 383.68H535.266ZM531.939 395.147C529.736 398.642 526.515 401.511 522.168 403.724L524.436 408.18C529.476 405.614 533.423 402.169 536.169 397.813L531.939 395.147ZM522.168 403.724C517.906 405.894 512.641 407.036 506.278 407.036V412.036C513.227 412.036 519.311 410.789 524.436 408.18L522.168 403.724Z" fill="#CCEECC"/>
<path d="M9.856 549H7.356V551.5H9.856V549ZM9.856 465.544V463.044H7.356V465.544H9.856ZM28.672 465.544H31.172V463.044H28.672V465.544ZM28.672 499.72H26.172V502.22H28.672V499.72ZM29.184 499.72V502.22H30.4578L31.2065 501.19L29.184 499.72ZM54.016 465.544V463.044H52.7422L51.9935 464.074L54.016 465.544ZM74.752 465.544L76.7446 467.054L79.7828 463.044H74.752V465.544ZM49.536 498.824L47.5434 497.314L46.5274 498.655L47.387 500.101L49.536 498.824ZM79.36 549V551.5H83.7543L81.509 547.723L79.36 549ZM58.752 549L56.5877 550.251L57.3097 551.5H58.752V549ZM38.4 513.8L40.5643 512.549L38.6834 509.295L36.4096 512.287L38.4 513.8ZM28.672 526.6L26.6816 525.087L26.172 525.758V526.6H28.672ZM28.672 549V551.5H31.172V549H28.672ZM12.356 549V465.544H7.356V549H12.356ZM9.856 468.044H28.672V463.044H9.856V468.044ZM26.172 465.544V499.72H31.172V465.544H26.172ZM28.672 502.22H29.184V497.22H28.672V502.22ZM31.2065 501.19L56.0385 467.014L51.9935 464.074L27.1615 498.25L31.2065 501.19ZM54.016 468.044H74.752V463.044H54.016V468.044ZM72.7594 464.034L47.5434 497.314L51.5286 500.334L76.7446 467.054L72.7594 464.034ZM47.387 500.101L77.211 550.277L81.509 547.723L51.685 497.547L47.387 500.101ZM79.36 546.5H58.752V551.5H79.36V546.5ZM60.9163 547.749L40.5643 512.549L36.2357 515.051L56.5877 550.251L60.9163 547.749ZM36.4096 512.287L26.6816 525.087L30.6624 528.113L40.3904 515.313L36.4096 512.287ZM26.172 526.6V549H31.172V526.6H26.172ZM28.672 546.5H9.856V551.5H28.672V546.5ZM105.121 549H102.621V551.5H105.121V549ZM105.121 465.544V463.044H102.621V465.544H105.121ZM124.449 465.544L126.663 464.382L125.961 463.044H124.449V465.544ZM146.209 507.016L148.494 506.001L148.461 505.926L148.423 505.854L146.209 507.016ZM154.401 525.448L152.116 526.463L152.776 527.948H154.401V525.448ZM154.913 525.448V527.948H157.613L157.406 525.256L154.913 525.448ZM153.505 510.6L151.02 510.872L151.02 510.872L153.505 510.6ZM152.609 465.544V463.044H150.109V465.544H152.609ZM170.529 465.544H173.029V463.044H170.529V465.544ZM170.529 549V551.5H173.029V549H170.529ZM151.201 549L148.986 550.159L149.687 551.5H151.201V549ZM129.441 507.4L127.162 508.427L127.192 508.494L127.226 508.559L129.441 507.4ZM121.249 489.224L123.528 488.197L122.864 486.724H121.249V489.224ZM120.737 489.224V486.724H117.995L118.248 489.454L120.737 489.224ZM122.145 504.072L119.657 504.313L119.659 504.333L119.661 504.352L122.145 504.072ZM123.041 549V551.5H125.541V549H123.041ZM107.621 549V465.544H102.621V549H107.621ZM105.121 468.044H124.449V463.044H105.121V468.044ZM122.235 466.706L143.995 508.178L148.423 505.854L126.663 464.382L122.235 466.706ZM143.924 508.031L152.116 526.463L156.686 524.433L148.494 506.001L143.924 508.031ZM154.401 527.948H154.913V522.948H154.401V527.948ZM157.406 525.256C157.062 520.787 156.59 515.81 155.99 510.328L151.02 510.872C151.615 516.312 152.081 521.234 152.42 525.64L157.406 525.256ZM155.99 510.328C155.402 504.947 155.109 499.833 155.109 494.984H150.109C150.109 500.033 150.414 505.33 151.02 510.872L155.99 510.328ZM155.109 494.984V465.544H150.109V494.984H155.109ZM152.609 468.044H170.529V463.044H152.609V468.044ZM168.029 465.544V549H173.029V465.544H168.029ZM170.529 546.5H151.201V551.5H170.529V546.5ZM153.416 547.841L131.656 506.241L127.226 508.559L148.986 550.159L153.416 547.841ZM131.72 506.373L123.528 488.197L118.97 490.251L127.162 508.427L131.72 506.373ZM121.249 486.724H120.737V491.724H121.249V486.724ZM118.248 489.454C118.675 494.066 119.144 499.019 119.657 504.313L124.633 503.831C124.122 498.543 123.653 493.598 123.226 488.994L118.248 489.454ZM119.661 504.352C120.248 509.557 120.541 514.583 120.541 519.432H125.541C125.541 514.382 125.236 509.168 124.629 503.792L119.661 504.352ZM120.541 519.432V549H125.541V519.432H120.541ZM123.041 546.5H105.121V551.5H123.041V546.5ZM220.966 545.288L219.647 547.412L219.654 547.416L219.661 547.42L220.966 545.288ZM207.654 530.312L205.401 531.395L205.409 531.412L205.418 531.43L207.654 530.312ZM207.654 483.72L205.424 482.59L205.418 482.602L207.654 483.72ZM220.966 469.128L222.238 471.28L222.248 471.275L220.966 469.128ZM260.518 469.128L259.222 471.266L259.241 471.277L259.26 471.289L260.518 469.128ZM273.83 483.72L271.588 484.826L271.594 484.838L271.6 484.85L273.83 483.72ZM273.83 530.312L271.588 529.206L271.582 529.218L273.83 530.312ZM260.518 545.288L259.213 543.156L259.206 543.16L259.199 543.164L260.518 545.288ZM254.374 526.856L252.299 525.461L252.299 525.461L254.374 526.856ZM254.374 487.304L256.413 485.858L256.413 485.858L254.374 487.304ZM227.238 487.304L225.199 485.858L225.199 485.858L227.238 487.304ZM227.238 526.856L229.313 525.461L229.313 525.461L227.238 526.856ZM240.806 548.036C233.7 548.036 227.55 546.386 222.271 543.156L219.661 547.42C225.817 551.188 232.893 553.036 240.806 553.036V548.036ZM222.285 543.164C217.082 539.932 212.946 535.306 209.89 529.194L205.418 531.43C208.847 538.289 213.586 543.646 219.647 547.412L222.285 543.164ZM209.907 529.229C206.947 523.068 205.418 515.647 205.418 506.888H200.418C200.418 516.22 202.047 524.415 205.401 531.395L209.907 529.229ZM205.418 506.888C205.418 498.035 206.95 490.719 209.89 484.838L205.418 482.602C202.044 489.35 200.418 497.479 200.418 506.888H205.418ZM209.884 484.85C212.933 478.832 217.056 474.343 222.238 471.28L219.694 466.976C213.612 470.569 208.86 475.808 205.424 482.59L209.884 484.85ZM222.248 471.275C227.53 468.121 233.689 466.508 240.806 466.508V461.508C232.904 461.508 225.837 463.308 219.684 466.981L222.248 471.275ZM240.806 466.508C247.924 466.508 254.033 468.121 259.222 471.266L261.814 466.99C255.739 463.308 248.707 461.508 240.806 461.508V466.508ZM259.26 471.289C264.519 474.35 268.63 478.83 271.588 484.826L276.072 482.614C272.715 475.81 267.951 470.562 261.776 466.967L259.26 471.289ZM271.6 484.85C274.625 490.82 276.194 498.135 276.194 506.888H281.194C281.194 497.55 279.52 489.42 276.06 482.59L271.6 484.85ZM276.194 506.888C276.194 515.638 274.626 523.05 271.588 529.206L276.072 531.418C279.519 524.432 281.194 516.229 281.194 506.888H276.194ZM271.582 529.218C268.617 535.308 264.492 539.925 259.213 543.156L261.823 547.42C267.978 543.654 272.728 538.286 276.078 531.406L271.582 529.218ZM259.199 543.164C254.013 546.386 247.912 548.036 240.806 548.036V553.036C248.718 553.036 255.759 551.188 261.837 547.412L259.199 543.164ZM240.806 536.78C247.398 536.78 252.68 533.855 256.449 528.251L252.299 525.461C249.412 529.755 245.649 531.78 240.806 531.78V536.78ZM256.449 528.251C260.145 522.754 261.866 515.555 261.866 506.888H256.866C256.866 514.946 255.259 521.059 252.299 525.461L256.449 528.251ZM261.866 506.888C261.866 498.232 260.149 491.126 256.413 485.858L252.335 488.75C255.255 492.869 256.866 498.819 256.866 506.888H261.866ZM256.413 485.858C252.62 480.509 247.34 477.764 240.806 477.764V482.764C245.707 482.764 249.472 484.713 252.335 488.75L256.413 485.858ZM240.806 477.764C234.272 477.764 228.992 480.509 225.199 485.858L229.277 488.75C232.14 484.713 235.905 482.764 240.806 482.764V477.764ZM225.199 485.858C221.463 491.126 219.746 498.232 219.746 506.888H224.746C224.746 498.819 226.357 492.869 229.277 488.75L225.199 485.858ZM219.746 506.888C219.746 515.555 221.467 522.754 225.163 528.251L229.313 525.461C226.353 521.059 224.746 514.946 224.746 506.888H219.746ZM225.163 528.251C228.932 533.855 234.214 536.78 240.806 536.78V531.78C235.963 531.78 232.2 529.755 229.313 525.461L225.163 528.251ZM320.114 547.464L319.224 549.8L319.236 549.805L320.114 547.464ZM305.65 538.504L303.728 536.905L302.207 538.734L303.957 540.344L305.65 538.504ZM316.402 525.576L318.029 523.678L316.102 522.027L314.48 523.977L316.402 525.576ZM326.386 531.848L325.376 534.135L325.376 534.135L326.386 531.848ZM345.714 532.104L344.228 530.094L344.207 530.109L344.185 530.126L345.714 532.104ZM345.33 520.456L344.044 522.6L344.094 522.63L344.145 522.657L345.33 520.456ZM336.626 516.232L335.651 518.534L335.661 518.538L336.626 516.232ZM325.746 511.624L324.77 513.925L324.771 513.926L325.746 511.624ZM317.682 506.888L316.12 508.84L316.14 508.856L316.161 508.872L317.682 506.888ZM312.69 476.296L310.624 474.888L310.613 474.904L310.603 474.92L312.69 476.296ZM323.186 467.336L322.085 465.092L322.076 465.096L322.068 465.1L323.186 467.336ZM353.01 466.824L353.924 464.497L353.924 464.497L353.01 466.824ZM365.554 475.016L367.5 476.585L368.91 474.837L367.322 473.248L365.554 475.016ZM355.954 486.92L354.415 488.89L356.355 490.406L357.9 488.489L355.954 486.92ZM347.762 482.056L346.76 484.346L346.79 484.36L346.821 484.372L347.762 482.056ZM330.866 482.312L332.274 484.378L332.284 484.371L332.294 484.364L330.866 482.312ZM331.634 493.576L330.453 495.78L330.469 495.788L330.485 495.797L331.634 493.576ZM340.722 497.672L341.66 495.355L341.66 495.355L340.722 497.672ZM351.474 502.024L352.416 499.708L352.412 499.707L351.474 502.024ZM363.506 510.472L365.427 508.872L365.427 508.872L363.506 510.472ZM364.274 537.48L366.389 538.813L366.389 538.813L364.274 537.48ZM353.522 546.952L354.656 549.18L354.656 549.18L353.522 546.952ZM336.498 548.036C331.356 548.036 326.192 547.073 320.992 545.123L319.236 549.805C324.959 551.951 330.717 553.036 336.498 553.036V548.036ZM321.004 545.128C315.927 543.194 311.378 540.376 307.343 536.664L303.957 540.344C308.456 544.482 313.549 547.638 319.224 549.8L321.004 545.128ZM307.572 540.103L318.324 527.175L314.48 523.977L303.728 536.905L307.572 540.103ZM314.775 527.474C317.951 530.196 321.487 532.417 325.376 534.135L327.396 529.561C323.946 528.037 320.827 526.076 318.029 523.678L314.775 527.474ZM325.376 534.135C329.308 535.872 333.193 536.78 337.01 536.78V531.78C334 531.78 330.803 531.066 327.396 529.561L325.376 534.135ZM337.01 536.78C341.157 536.78 344.723 536.03 347.243 534.082L344.185 530.126C342.951 531.08 340.714 531.78 337.01 531.78V536.78ZM347.2 534.114C349.811 532.185 351.158 529.471 351.158 526.216H346.158C346.158 527.911 345.542 529.122 344.228 530.094L347.2 534.114ZM351.158 526.216C351.158 524.539 350.804 522.949 349.991 521.541C349.174 520.127 347.976 519.041 346.515 518.255L344.145 522.657C344.903 523.065 345.369 523.537 345.661 524.043C345.957 524.555 346.158 525.247 346.158 526.216H351.158ZM346.616 518.312C344.338 516.945 341.314 515.484 337.591 513.926L335.661 518.538C339.276 520.052 342.055 521.407 344.044 522.6L346.616 518.312ZM337.601 513.93L326.721 509.322L324.771 513.926L335.651 518.534L337.601 513.93ZM326.722 509.323C324.111 508.215 321.605 506.745 319.203 504.904L316.161 508.872C318.879 510.956 321.749 512.644 324.77 513.925L326.722 509.323ZM319.244 504.936C316.954 503.104 315.075 500.848 313.607 498.143L309.213 500.529C310.987 503.797 313.29 506.576 316.12 508.84L319.244 504.936ZM313.607 498.143C312.218 495.584 311.478 492.509 311.478 488.84H306.478C306.478 493.192 307.36 497.115 309.213 500.529L313.607 498.143ZM311.478 488.84C311.478 484.708 312.579 481.008 314.777 477.672L310.603 474.92C307.852 479.094 306.478 483.756 306.478 488.84H311.478ZM314.756 477.704C317.054 474.334 320.212 471.618 324.304 469.572L322.068 465.1C317.285 467.491 313.446 470.749 310.624 474.888L314.756 477.704ZM324.287 469.58C328.418 467.554 333.195 466.508 338.674 466.508V461.508C332.548 461.508 326.999 462.681 322.085 465.092L324.287 469.58ZM338.674 466.508C343.117 466.508 347.587 467.379 352.096 469.151L353.924 464.497C348.876 462.514 343.788 461.508 338.674 461.508V466.508ZM352.096 469.151C356.559 470.904 360.449 473.446 363.786 476.784L367.322 473.248C363.491 469.418 359.018 466.498 353.924 464.497L352.096 469.151ZM363.608 473.447L354.008 485.351L357.9 488.489L367.5 476.585L363.608 473.447ZM357.493 484.95C354.611 482.698 351.682 480.95 348.703 479.74L346.821 484.372C349.304 485.381 351.836 486.875 354.415 488.89L357.493 484.95ZM348.764 479.766C345.682 478.417 342.307 477.764 338.674 477.764V482.764C341.697 482.764 344.38 483.305 346.76 484.346L348.764 479.766ZM338.674 477.764C335.099 477.764 331.946 478.516 329.438 480.26L332.294 484.364C333.712 483.378 335.764 482.764 338.674 482.764V477.764ZM329.458 480.246C326.856 482.02 325.55 484.651 325.55 487.816H330.55C330.55 486.203 331.121 485.164 332.274 484.378L329.458 480.246ZM325.55 487.816C325.55 489.5 325.948 491.09 326.823 492.497C327.694 493.896 328.95 494.974 330.453 495.78L332.815 491.372C331.929 490.898 331.393 490.376 331.069 489.855C330.749 489.342 330.55 488.692 330.55 487.816H325.55ZM330.485 495.797C333.049 497.123 336.154 498.52 339.784 499.989L341.66 495.355C338.122 493.923 335.168 492.589 332.783 491.355L330.485 495.797ZM339.784 499.989L350.536 504.341L352.412 499.707L341.66 495.355L339.784 499.989ZM350.532 504.34C355.25 506.259 358.902 508.852 361.585 512.072L365.427 508.872C362.137 504.924 357.768 501.885 352.416 499.708L350.532 504.34ZM361.585 512.072C364.108 515.1 365.486 519.22 365.486 524.68H370.486C370.486 518.364 368.877 513.012 365.427 508.872L361.585 512.072ZM365.486 524.68C365.486 528.813 364.384 532.618 362.159 536.147L366.389 538.813C369.113 534.492 370.486 529.763 370.486 524.68H365.486ZM362.159 536.147C359.956 539.642 356.735 542.511 352.388 544.724L354.656 549.18C359.696 546.614 363.643 543.169 366.389 538.813L362.159 536.147ZM352.388 544.724C348.126 546.894 342.861 548.036 336.498 548.036V553.036C343.447 553.036 349.531 551.789 354.656 549.18L352.388 544.724ZM412.547 549H410.047V551.5H412.547V549ZM412.547 481.416H415.047V478.916H412.547V481.416ZM389.635 481.416H387.135V483.916H389.635V481.416ZM389.635 465.544V463.044H387.135V465.544H389.635ZM454.403 465.544H456.903V463.044H454.403V465.544ZM454.403 481.416V483.916H456.903V481.416H454.403ZM431.491 481.416V478.916H428.991V481.416H431.491ZM431.491 549V551.5H433.991V549H431.491ZM415.047 549V481.416H410.047V549H415.047ZM412.547 478.916H389.635V483.916H412.547V478.916ZM392.135 481.416V465.544H387.135V481.416H392.135ZM389.635 468.044H454.403V463.044H389.635V468.044ZM451.903 465.544V481.416H456.903V465.544H451.903ZM454.403 478.916H431.491V483.916H454.403V478.916ZM428.991 481.416V549H433.991V481.416H428.991ZM431.491 546.5H412.547V551.5H431.491V546.5ZM489.894 547.464L489.004 549.8L489.016 549.805L489.894 547.464ZM475.43 538.504L473.508 536.905L471.987 538.734L473.737 540.344L475.43 538.504ZM486.182 525.576L487.809 523.678L485.882 522.027L484.26 523.977L486.182 525.576ZM496.166 531.848L495.156 534.135L495.156 534.135L496.166 531.848ZM515.494 532.104L514.008 530.094L513.987 530.109L513.965 530.126L515.494 532.104ZM515.11 520.456L513.824 522.6L513.874 522.63L513.925 522.657L515.11 520.456ZM506.406 516.232L505.431 518.534L505.441 518.538L506.406 516.232ZM495.526 511.624L494.55 513.925L494.551 513.926L495.526 511.624ZM487.462 506.888L485.9 508.84L485.92 508.856L485.941 508.872L487.462 506.888ZM482.47 476.296L480.404 474.888L480.393 474.904L480.383 474.92L482.47 476.296ZM492.966 467.336L491.865 465.092L491.856 465.096L491.848 465.1L492.966 467.336ZM522.79 466.824L523.704 464.497L523.704 464.497L522.79 466.824ZM535.334 475.016L537.28 476.585L538.69 474.837L537.102 473.248L535.334 475.016ZM525.734 486.92L524.195 488.89L526.135 490.406L527.68 488.489L525.734 486.92ZM517.542 482.056L516.54 484.346L516.57 484.36L516.601 484.372L517.542 482.056ZM500.646 482.312L502.054 484.378L502.064 484.371L502.074 484.364L500.646 482.312ZM501.414 493.576L500.233 495.78L500.249 495.788L500.265 495.797L501.414 493.576ZM510.502 497.672L511.44 495.355L511.44 495.355L510.502 497.672ZM521.254 502.024L522.196 499.708L522.192 499.707L521.254 502.024ZM533.286 510.472L535.207 508.872L535.207 508.872L533.286 510.472ZM534.054 537.48L536.169 538.813L536.169 538.813L534.054 537.48ZM523.302 546.952L524.436 549.18L524.436 549.18L523.302 546.952ZM506.278 548.036C501.136 548.036 495.972 547.073 490.772 545.123L489.016 549.805C494.739 551.951 500.497 553.036 506.278 553.036V548.036ZM490.784 545.128C485.707 543.194 481.158 540.376 477.123 536.664L473.737 540.344C478.236 544.482 483.329 547.638 489.004 549.8L490.784 545.128ZM477.352 540.103L488.104 527.175L484.26 523.977L473.508 536.905L477.352 540.103ZM484.555 527.474C487.731 530.196 491.267 532.417 495.156 534.135L497.176 529.561C493.726 528.037 490.607 526.076 487.809 523.678L484.555 527.474ZM495.156 534.135C499.088 535.872 502.973 536.78 506.79 536.78V531.78C503.78 531.78 500.583 531.066 497.176 529.561L495.156 534.135ZM506.79 536.78C510.937 536.78 514.503 536.03 517.023 534.082L513.965 530.126C512.731 531.08 510.494 531.78 506.79 531.78V536.78ZM516.98 534.114C519.591 532.185 520.938 529.471 520.938 526.216H515.938C515.938 527.911 515.322 529.122 514.008 530.094L516.98 534.114ZM520.938 526.216C520.938 524.539 520.584 522.949 519.771 521.541C518.954 520.127 517.756 519.041 516.295 518.255L513.925 522.657C514.683 523.065 515.149 523.537 515.441 524.043C515.737 524.555 515.938 525.247 515.938 526.216H520.938ZM516.396 518.312C514.118 516.945 511.094 515.484 507.371 513.926L505.441 518.538C509.056 520.052 511.836 521.407 513.824 522.6L516.396 518.312ZM507.381 513.93L496.501 509.322L494.551 513.926L505.431 518.534L507.381 513.93ZM496.502 509.323C493.891 508.215 491.385 506.745 488.983 504.904L485.941 508.872C488.659 510.956 491.529 512.644 494.55 513.925L496.502 509.323ZM489.024 504.936C486.734 503.104 484.855 500.848 483.387 498.143L478.993 500.529C480.767 503.797 483.07 506.576 485.9 508.84L489.024 504.936ZM483.387 498.143C481.998 495.584 481.258 492.509 481.258 488.84H476.258C476.258 493.192 477.14 497.115 478.993 500.529L483.387 498.143ZM481.258 488.84C481.258 484.708 482.359 481.008 484.557 477.672L480.383 474.92C477.632 479.094 476.258 483.756 476.258 488.84H481.258ZM484.536 477.704C486.834 474.334 489.992 471.618 494.084 469.572L491.848 465.1C487.065 467.491 483.226 470.749 480.404 474.888L484.536 477.704ZM494.067 469.58C498.199 467.554 502.975 466.508 508.454 466.508V461.508C502.328 461.508 496.779 462.681 491.865 465.092L494.067 469.58ZM508.454 466.508C512.897 466.508 517.367 467.379 521.876 469.151L523.704 464.497C518.656 462.514 513.568 461.508 508.454 461.508V466.508ZM521.876 469.151C526.339 470.904 530.229 473.446 533.566 476.784L537.102 473.248C533.271 469.418 528.799 466.498 523.704 464.497L521.876 469.151ZM533.388 473.447L523.788 485.351L527.68 488.489L537.28 476.585L533.388 473.447ZM527.273 484.95C524.391 482.698 521.462 480.95 518.483 479.74L516.601 484.372C519.084 485.381 521.616 486.875 524.195 488.89L527.273 484.95ZM518.544 479.766C515.462 478.417 512.087 477.764 508.454 477.764V482.764C511.477 482.764 514.16 483.305 516.54 484.346L518.544 479.766ZM508.454 477.764C504.879 477.764 501.726 478.516 499.218 480.26L502.074 484.364C503.492 483.378 505.544 482.764 508.454 482.764V477.764ZM499.238 480.246C496.636 482.02 495.33 484.651 495.33 487.816H500.33C500.33 486.203 500.901 485.164 502.054 484.378L499.238 480.246ZM495.33 487.816C495.33 489.5 495.728 491.09 496.603 492.497C497.474 493.896 498.73 494.974 500.233 495.78L502.595 491.372C501.709 490.898 501.173 490.376 500.849 489.855C500.529 489.342 500.33 488.692 500.33 487.816H495.33ZM500.265 495.797C502.829 497.123 505.934 498.52 509.564 499.989L511.44 495.355C507.902 493.923 504.948 492.589 502.563 491.355L500.265 495.797ZM509.564 499.989L520.316 504.341L522.192 499.707L511.44 495.355L509.564 499.989ZM520.312 504.34C525.03 506.259 528.682 508.852 531.365 512.072L535.207 508.872C531.917 504.924 527.548 501.885 522.196 499.708L520.312 504.34ZM531.365 512.072C533.888 515.1 535.266 519.22 535.266 524.68H540.266C540.266 518.364 538.657 513.012 535.207 508.872L531.365 512.072ZM535.266 524.68C535.266 528.813 534.164 532.618 531.939 536.147L536.169 538.813C538.893 534.492 540.266 529.763 540.266 524.68H535.266ZM531.939 536.147C529.736 539.642 526.515 542.511 522.168 544.724L524.436 549.18C529.476 546.614 533.423 543.169 536.169 538.813L531.939 536.147ZM522.168 544.724C517.906 546.894 512.641 548.036 506.278 548.036V553.036C513.227 553.036 519.311 551.789 524.436 549.18L522.168 544.724Z" fill="#CCEECC"/>
</svg>
